<?xml version="1.0" standalone="no"?>
<!DOCTYPE svg PUBLIC "-//W3C//DTD SVG 1.1//EN" "http://www.w3.org/Graphics/SVG/1.1/DTD/svg11.dtd" >
<svg xmlns="http://www.w3.org/2000/svg">
<metadata>Generated by IcoMoon</metadata>
<defs>
<font id="icomoon" horiz-adv-x="1024">
<font-face units-per-em="1024" ascent="960" descent="-64" />
<missing-glyph horiz-adv-x="1024" />
<glyph unicode="&#x20;" horiz-adv-x="512" d="" />
<glyph unicode="&#xe900;" glyph-name="Activity-1" d="M513.929 864c78.362 0 139.785 0 188.514-5.279 49.732-5.388 90.022-16.58 124.429-41.575 20.826-15.132 39.142-33.448 54.272-54.276 24.998-34.403 36.19-74.697 41.579-124.426 5.278-48.73 5.278-110.153 5.278-188.511v-3.866c0-78.357 0-139.78-5.278-188.51-5.389-49.732-16.58-90.022-41.579-124.429-15.13-20.826-33.446-39.142-54.272-54.272-34.406-24.998-74.697-36.19-124.429-41.579-48.73-5.278-110.153-5.278-188.51-5.278h-3.866c-78.357 0-139.781 0-188.511 5.278-49.73 5.389-90.023 16.58-124.426 41.579-20.828 15.13-39.144 33.446-54.276 54.272-24.995 34.406-36.187 74.697-41.575 124.429-5.28 48.73-5.28 110.153-5.279 188.514v3.857c0 78.362 0 139.784 5.279 188.515 5.388 49.73 16.58 90.023 41.575 124.426 15.132 20.828 33.448 39.144 54.276 54.276 34.403 24.995 74.697 36.187 124.426 41.575 48.731 5.28 110.153 5.28 188.515 5.279h3.857zM754.065 555.812c7.782 15.867 1.229 35.039-14.639 42.822s-35.038 1.23-42.825-14.637l-62.306-127.021c-19.311-39.373-76.075-37.449-92.676 3.14-37.513 91.692-165.745 96.035-209.375 7.091l-62.307-127.019c-7.783-15.868-1.23-35.042 14.637-42.825s35.039-1.229 42.822 14.639l62.307 127.019c19.313 39.373 76.076 37.449 92.677-3.14 37.513-91.691 165.743-96.034 209.374-7.091l62.31 127.021z" />
<glyph unicode="&#xe901;" glyph-name="Activity-2" d="M853.333 661.333c-70.694 0-128 57.308-128 128 0 23.035 6.084 44.649 16.734 63.322-12.518 2.594-25.702 4.557-39.625 6.065-48.73 5.28-110.153 5.28-188.514 5.279h-3.857c-78.362 0-139.784 0-188.515-5.279-49.73-5.388-90.023-16.58-124.426-41.575-20.828-15.132-39.144-33.448-54.276-54.276-24.995-34.403-36.187-74.697-41.575-124.426-5.28-48.731-5.28-110.153-5.279-188.511v-3.861c0-78.362 0-139.785 5.279-188.514 5.388-49.732 16.58-90.022 41.575-124.429 15.132-20.826 33.448-39.142 54.276-54.272 34.403-24.998 74.697-36.19 124.426-41.579 48.73-5.278 110.153-5.278 188.511-5.278h3.866c78.357 0 139.78 0 188.51 5.278 49.732 5.389 90.022 16.58 124.429 41.579 20.826 15.13 39.142 33.446 54.272 54.272 24.998 34.406 36.19 74.697 41.579 124.429 5.278 48.73 5.278 110.153 5.278 188.51v3.866c0 78.357 0 139.781-5.278 188.511-1.51 13.922-3.473 27.104-6.067 39.625-18.671-10.65-40.286-16.735-63.322-16.735zM739.426 598.635c15.868-7.783 22.421-26.956 14.639-42.822l-62.31-127.021c-43.631-88.943-171.861-84.599-209.374 7.091-16.602 40.589-73.364 42.513-92.677 3.14l-62.307-127.019c-7.783-15.868-26.956-22.421-42.822-14.639s-22.42 26.957-14.637 42.825l62.307 127.019c43.63 88.944 171.862 84.601 209.375-7.091 16.602-40.589 73.365-42.513 92.676-3.14l62.306 127.021c7.787 15.867 26.957 22.42 42.825 14.637zM768 789.333c0-47.128 38.204-85.333 85.333-85.333s85.333 38.205 85.333 85.333c0 47.128-38.204 85.333-85.333 85.333s-85.333-38.205-85.333-85.333z" />
<glyph unicode="&#xe902;" glyph-name="Activity-3" d="M642.846 883.392c-34.33 3.067-76.275 3.067-129.348 3.067h-3.004c-53.069 0-95.017 0-129.345-3.067-35.262-3.151-64.756-9.681-92.631-23.98-7.22-3.704-14.253-7.764-21.071-12.166-26.321-16.99-46.723-39.267-67.083-68.23-19.82-28.196-40.794-64.524-67.328-110.483l-1.503-2.603c-26.535-45.959-47.509-82.287-62.016-113.55-14.903-32.115-23.994-60.919-25.548-92.211-0.402-8.107-0.402-16.226 0-24.329 1.553-31.292 10.645-60.1 25.548-92.211 14.508-31.262 35.482-67.593 62.016-113.549l1.504-2.607c26.534-45.956 47.508-82.287 67.328-110.481 20.36-28.962 40.762-51.238 67.083-68.228 6.818-4.403 13.85-8.465 21.071-12.169 27.875-14.298 57.368-20.83 92.631-23.979 34.328-3.068 76.276-3.068 129.345-3.068h3.004c53.069 0 95.019 0 129.348 3.068 35.264 3.149 64.755 9.681 92.629 23.979 7.223 3.703 14.255 7.765 21.073 12.169 26.321 16.99 46.72 39.266 67.081 68.228 19.823 28.194 40.794 64.525 67.328 110.481l1.506 2.603c26.534 45.961 47.509 82.287 62.016 113.553 14.903 32.111 23.991 60.919 25.549 92.211 0.401 8.102 0.401 16.222 0 24.329-1.557 31.292-10.645 60.096-25.549 92.211-14.507 31.263-35.482 67.591-62.020 113.551l-1.498 2.601c-26.534 45.96-47.509 82.288-67.332 110.484-20.361 28.963-40.759 51.24-67.081 68.23-6.818 4.401-13.85 8.461-21.073 12.166-27.874 14.3-57.37 20.829-92.629 23.98zM754.057 555.816c7.782 15.867 1.233 35.039-14.635 42.822s-35.042 1.23-42.825-14.637l-62.306-127.020c-19.311-39.373-76.075-37.449-92.681 3.14-37.508 91.691-165.742 96.035-209.371 7.091l-62.307-127.023c-7.783-15.863-1.23-35.038 14.637-42.82s35.039-1.229 42.822 14.635l62.307 127.023c19.313 39.373 76.076 37.449 92.678-3.14 37.513-91.691 165.743-96.034 209.374-7.091l62.306 127.020z" />
<glyph unicode="&#xe903;" glyph-name="Activity-4" d="M499.831 916.032c8.107 0.402 16.226 0.402 24.329 0 31.292-1.553 60.1-10.645 92.211-25.548 31.262-14.508 67.588-35.481 113.549-62.015l2.603-1.504c45.961-26.534 82.291-47.508 110.485-67.329 28.962-20.36 51.238-40.762 68.228-67.083 4.403-6.818 8.465-13.851 12.169-21.071 14.298-27.875 20.83-57.368 23.979-92.631 3.068-34.328 3.068-76.276 3.068-129.345v-3.004c0-53.069 0-95.019-3.068-129.348-3.149-35.26-9.681-64.755-23.979-92.629-3.703-7.219-7.765-14.255-12.169-21.073-16.99-26.321-39.266-46.72-68.228-67.081-28.194-19.823-64.525-40.798-110.485-67.332l-2.598-1.502c-45.961-26.534-82.287-47.509-113.553-62.016-32.111-14.903-60.919-23.991-92.211-25.549-8.102-0.401-16.222-0.401-24.329 0-31.292 1.557-60.096 10.645-92.211 25.549-31.262 14.507-67.59 35.482-113.548 62.016l-2.608 1.506c-45.955 26.53-82.287 47.509-110.481 67.328-28.963 20.361-51.24 40.759-68.23 67.081-4.401 6.818-8.461 13.85-12.166 21.073-14.3 27.874-20.829 57.365-23.98 92.629-3.067 34.33-3.067 76.275-3.067 129.344v3.008c0 53.069 0 95.017 3.067 129.345 3.151 35.262 9.681 64.756 23.98 92.631 3.704 7.22 7.764 14.253 12.166 21.071 16.99 26.321 39.267 46.723 68.23 67.083 28.196 19.82 64.524 40.794 110.483 67.328l2.602 1.502c45.96 26.535 82.288 47.51 113.551 62.017 32.115 14.903 60.919 23.994 92.211 25.548zM754.057 555.815c7.782 15.867 1.233 35.039-14.635 42.822s-35.042 1.23-42.825-14.637l-62.306-127.019c-19.311-39.373-76.075-37.449-92.681 3.136-37.508 91.695-165.742 96.038-209.371 7.095l-62.307-127.023c-7.783-15.868-1.23-35.038 14.637-42.82 15.867-7.787 35.039-1.233 42.822 14.635l62.307 127.023c19.313 39.369 76.076 37.449 92.678-3.14 37.513-91.695 165.743-96.038 209.374-7.091l62.306 127.019z" />
<glyph unicode="&#xe904;" glyph-name="Add-Category" d="M170.667 661.333c0 39.76 0 59.64 6.496 75.322 8.661 20.909 25.273 37.521 46.182 46.182 15.682 6.496 35.562 6.496 75.322 6.496s59.64 0 75.322-6.496c20.909-8.661 37.521-25.273 46.182-46.182 6.496-15.682 6.496-35.562 6.496-75.322s0-59.64-6.496-75.322c-8.661-20.909-25.273-37.521-46.182-46.182-15.682-6.496-35.562-6.496-75.322-6.496s-59.64 0-75.322 6.496c-20.909 8.661-37.521 25.273-46.182 46.182-6.496 15.682-6.496 35.562-6.496 75.322zM170.667 234.667c0 39.761 0 59.639 6.496 75.324 8.661 20.907 25.273 37.521 46.182 46.182 15.682 6.494 35.562 6.494 75.322 6.494s59.64 0 75.322-6.494c20.909-8.661 37.521-25.276 46.182-46.182 6.496-15.684 6.496-35.563 6.496-75.324s0-59.639-6.496-75.324c-8.661-20.907-25.273-37.521-46.182-46.182-15.682-6.494-35.562-6.494-75.322-6.494s-59.64 0-75.322 6.494c-20.909 8.661-37.521 25.276-46.182 46.182-6.496 15.684-6.496 35.563-6.496 75.324zM597.333 234.667c0 39.761 0 59.639 6.494 75.324 8.661 20.907 25.276 37.521 46.182 46.182 15.684 6.494 35.563 6.494 75.324 6.494s59.639 0 75.324-6.494c20.907-8.661 37.521-25.276 46.182-46.182 6.494-15.684 6.494-35.563 6.494-75.324s0-59.639-6.494-75.324c-8.661-20.907-25.276-37.521-46.182-46.182-15.684-6.494-35.563-6.494-75.324-6.494s-59.639 0-75.324 6.494c-20.907 8.661-37.521 25.276-46.182 46.182-6.494 15.684-6.494 35.563-6.494 75.324zM757.333 789.333c0 17.673-14.327 32-32 32s-32-14.327-32-32v-96h-96c-17.673 0-32-14.327-32-32s14.327-32 32-32h96v-96c0-17.673 14.327-32 32-32s32 14.327 32 32v96h96c17.673 0 32 14.327 32 32s-14.327 32-32 32h-96v96z" />
<glyph unicode="&#xe905;" glyph-name="Add-Circle" d="M512 21.333c235.639 0 426.667 191.027 426.667 426.667 0 235.642-191.027 426.667-426.667 426.667-235.642 0-426.667-191.025-426.667-426.667 0-235.639 191.025-426.667 426.667-426.667zM544 576c0 17.673-14.327 32-32 32s-32-14.327-32-32v-96h-96c-17.673 0-32-14.327-32-32s14.327-32 32-32h96v-96c0-17.673 14.327-32 32-32s32 14.327 32 32v96h96c17.673 0 32 14.327 32 32s-14.327 32-32 32h-96v96z" />
<glyph unicode="&#xe906;" glyph-name="Add-Square" d="M168.743 744.061c-40.743-56.078-40.743-136.073-40.743-296.061 0-159.987 0-239.983 40.743-296.060 13.158-18.112 29.085-34.039 47.196-47.198 56.078-40.742 136.073-40.742 296.061-40.742 159.987 0 239.983 0 296.060 40.742 18.112 13.158 34.039 29.086 47.198 47.198 40.742 56.077 40.742 136.073 40.742 296.060s0 239.983-40.742 296.061c-13.158 18.111-29.086 34.038-47.198 47.196-56.077 40.743-136.073 40.743-296.060 40.743s-239.983 0-296.061-40.743c-18.111-13.158-34.038-29.085-47.196-47.196zM544 576c0 17.673-14.327 32-32 32s-32-14.327-32-32v-96h-96c-17.673 0-32-14.327-32-32s14.327-32 32-32h96v-96c0-17.673 14.327-32 32-32s32 14.327 32 32v96h96c17.673 0 32 14.327 32 32s-14.327 32-32 32h-96v96z" />
<glyph unicode="&#xe907;" glyph-name="Add" d="M544 789.333c0 17.673-14.327 32-32 32s-32-14.327-32-32v-309.333h-309.333c-17.673 0-32-14.327-32-32s14.327-32 32-32h309.333v-309.333c0-17.673 14.327-32 32-32s32 14.327 32 32v309.333h309.333c17.673 0 32 14.327 32 32s-14.327 32-32 32h-309.333v309.333z" />
<glyph unicode="&#xe908;" glyph-name="Arrow-Swap-Horizontal" d="M372.389 766.605c12.553 12.441 12.643 32.702 0.202 45.254s-32.702 12.643-45.254 0.202l-61.489-60.943c-22.877-22.673-41.957-41.582-55.561-58.521-14.269-17.768-25.122-36.44-28.022-59.19-3.538-27.76 19.483-46.741 41.792-46.741h586.61c17.673 0 32 14.327 32 32s-14.327 32-32 32h-551.949c0.473 0.607 0.963 1.225 1.469 1.856 11.055 13.766 27.497 30.129 52.026 54.441l60.176 59.642zM213.333 309.333c-17.673 0-32-14.327-32-32s14.327-32 32-32h560.495c-0.474-0.606-0.964-1.225-1.472-1.856-11.055-13.764-27.494-30.131-52.023-54.443l-60.177-59.639c-12.553-12.442-12.642-32.704-0.201-45.257 12.437-12.553 32.7-12.642 45.252-0.201l61.487 60.941c22.878 22.673 41.958 41.583 55.565 58.522 14.268 17.771 25.118 36.442 28.019 59.191 0.128 0.994 0.239 1.984 0.341 2.978 2.607 25.724-18.534 43.763-39.953 43.763h-597.333z" />
<glyph unicode="&#xe909;" glyph-name="Arrow-Swap-Vertical" d="M694.421 786.615c-25.719 2.608-43.759-18.535-43.759-39.953v-597.332c0-17.673 14.327-32 32-32s32 14.327 32 32v560.492c0.606-0.473 1.225-0.963 1.856-1.469 13.764-11.055 30.127-27.497 54.438-52.026l59.644-60.176c12.442-12.553 32.7-12.643 45.252-0.202s12.646 32.702 0.205 45.254l-60.945 61.488c-22.673 22.877-41.579 41.957-58.522 55.561-17.766 14.269-36.437 25.122-59.187 28.022-0.994 0.126-1.988 0.24-2.982 0.341zM373.328 746.661c0 17.673-14.327 32-32 32s-32-14.327-32-32v-551.948c-0.607 0.469-1.225 0.96-1.856 1.468-13.766 11.055-30.129 27.499-54.441 52.028l-59.642 60.173c-12.441 12.553-32.702 12.642-45.254 0.205-12.553-12.442-12.643-32.704-0.202-45.257l60.942-61.487c22.672-22.878 41.583-41.958 58.522-55.561 17.767-14.272 36.44-25.122 59.19-28.023 27.76-3.537 46.741 19.482 46.741 41.792v586.61z" />
<glyph unicode="&#xe90a;" glyph-name="Attachment" d="M627.558 829.646c26.223 13.036 57.045 16.915 87.552 8.741 66.385-17.788 105.783-86.026 87.996-152.413l-101.227-377.784c-17.788-66.389-86.029-105.783-152.414-87.996s-105.783 86.025-87.996 152.414l40.491 151.113c4.574 17.071-5.555 34.618-22.626 39.192s-34.62-5.557-39.194-22.628l-40.49-151.113c-26.936-100.527 32.72-203.861 133.251-230.797 100.527-26.935 203.857 32.721 230.797 133.252l101.227 377.783c26.935 100.529-32.721 203.86-133.252 230.796-46.14 12.364-92.949 6.461-132.604-13.25-24.316-12.087-45.99-29.385-63.249-50.904-11.059-13.786-8.849-33.926 4.941-44.984 13.786-11.058 33.924-8.847 44.983 4.94 11.371 14.179 25.698 25.628 41.813 33.638zM350.848 564.211c17.788 66.387 86.025 105.784 152.414 87.995 66.385-17.788 105.783-86.025 87.996-152.413l-40.491-151.113c-4.578-17.071 5.555-34.62 22.626-39.194s34.615 5.559 39.189 22.63l40.491 151.113c26.94 100.529-32.721 203.86-133.248 230.796-100.529 26.937-203.86-32.721-230.797-133.25l-101.227-377.785c-26.937-100.527 32.721-203.861 133.251-230.797 46.142-12.365 92.951-6.46 132.606 13.252 24.311 12.087 45.99 29.385 63.249 50.901 11.059 13.786 8.845 33.929-4.941 44.988-13.786 11.055-33.924 8.845-44.983-4.941-11.375-14.182-25.702-25.63-41.815-33.638-26.224-13.039-57.044-16.917-87.551-8.742-66.387 17.788-105.783 86.025-87.995 152.414l101.227 377.783z" />
<glyph unicode="&#xe90b;" glyph-name="Award-1" d="M537.378 737.784c-8.201 26.066-42.539 26.066-50.735 0-11.887-37.794-46.417-64.346-86.419-64.346-12.376 0-21.612-7.612-25.367-19.55-3.778-12.011-0.692-24.629 10.032-32.678 31.716-23.803 44.504-65.43 32.666-103.070-4.371-13.897 0.86-25.792 10.033-32.678 9.020-6.771 20.318-7.765 30.669 0 31.979 24.004 75.524 24.004 107.503 0 10.351-7.765 21.649-6.771 30.673 0 9.169 6.886 14.4 18.782 10.031 32.678-11.84 37.64 0.951 79.267 32.666 103.070 10.722 8.049 13.811 20.667 10.031 32.678-3.755 11.938-12.992 19.55-25.365 19.55-40.004 0-74.53 26.552-86.417 64.346zM138.676 576c0-18.216 1.307-36.136 3.833-53.666 4.629-12.301 9.854-24.303 15.64-35.981 53.597-108.164 155.31-188.207 277.009-212.215 24.832-4.898 50.526-7.471 76.851-7.471 22.515 0 44.57 1.882 66.014 5.491 124.258 20.911 228.924 99.977 284.89 208.346 6.976 13.5 13.193 27.46 18.594 41.818 2.53 17.534 3.836 35.458 3.836 53.679 0 206.186-167.147 373.333-373.333 373.333s-373.333-167.147-373.333-373.333zM425.591 756.987c26.987 85.795 145.848 85.795 172.835 0 3.849-12.232 14.451-19.549 25.37-19.549 89.984 0 122.543-115.785 53.751-167.415-9.481-7.115-13.931-20.291-10.031-32.678 13.218-42.036-3.738-81.357-32.67-103.070-29.077-21.824-71.795-26.799-107.503 0-9.216 6.921-21.453 6.921-30.669 0-35.708-26.799-78.424-21.824-107.504 0-28.93 21.713-45.888 61.035-32.666 103.070 3.896 12.387-0.552 25.563-10.032 32.678-68.793 51.63-36.235 167.415 53.752 167.415 10.918 0 21.519 7.318 25.367 19.549zM139.257 394.018c-3.783-6.404-7.767-13.308-12.058-20.74l-77.908-134.942c-9.62-16.657-18.515-32.060-23.644-44.809-5.023-12.489-11.35-34.146 2.631-54.191 14.157-20.297 36.883-21.5 50.351-20.83 13.636 0.678 30.97 4.087 49.592 7.757l33.76 6.639c18.716 3.682 29.821 5.803 38.060 6.37 3.763 0.26 5.783 0.085 6.777-0.081 0.457-0.077 0.727-0.166 0.727-0.166l0.125-0.060 0.113-0.081c0 0 0.214-0.188 0.508-0.542 0.642-0.781 1.803-2.441 3.46-5.828 3.629-7.42 7.342-18.099 13.512-36.147l11.128-32.555c6.136-17.963 11.849-34.679 18.080-46.831 6.154-11.998 18.559-31.078 43.216-33.186 24.349-2.086 39.94 14.221 48.244 24.815 8.477 10.816 17.369 26.223 26.985 42.88l76.343 132.228c4.544 7.872 8.7 15.070 12.442 21.679-13.146 1.434-26.133 3.426-38.932 5.952-116.366 22.955-216.848 89.865-283.512 182.669zM878.148 385.037c1.937-3.341 3.934-6.797 5.995-10.372l78.711-136.333c9.617-16.653 18.513-32.055 23.642-44.804 5.022-12.489 11.349-34.146-2.633-54.191-14.157-20.297-36.881-21.5-50.351-20.83-13.632 0.678-30.967 4.087-49.591 7.757l-33.758 6.639c-18.718 3.682-29.824 5.803-38.063 6.37-3.759 0.26-5.781 0.085-6.775-0.081-0.457-0.077-0.725-0.166-0.725-0.166l-0.128-0.060-0.060-0.038-0.051-0.043c0 0-0.213-0.188-0.508-0.542-0.644-0.781-1.805-2.441-3.46-5.828-3.631-7.42-7.343-18.099-13.513-36.147l-11.127-32.555c-6.135-17.963-11.849-34.684-18.082-46.831-6.153-11.998-18.56-31.078-43.217-33.186-24.346-2.086-39.94 14.221-48.243 24.815-8.478 10.816-17.37 26.219-26.982 42.88l-76.348 132.233c-4.292 7.441-8.239 14.276-11.819 20.587 12.676 1.067 25.207 2.654 37.581 4.736 117.884 19.836 220.429 84.587 289.506 175.991z" />
<glyph unicode="&#xe90c;" glyph-name="Award-2" d="M511.987 949.333c-206.185 0-373.332-167.147-373.332-373.333 0-18.216 1.307-36.136 3.833-53.666 4.629-12.301 9.854-24.303 15.64-35.981 53.597-108.164 155.31-188.207 277.009-212.215 24.832-4.898 50.526-7.471 76.855-7.471 22.511 0 44.565 1.882 66.010 5.491 124.258 20.911 228.924 99.977 284.89 208.346 6.976 13.5 13.193 27.46 18.594 41.818 2.53 17.534 3.836 35.458 3.836 53.679 0 206.186-167.147 373.333-373.333 373.333zM878.127 385.037c-69.077-91.405-171.622-156.156-289.506-175.991-12.373-2.082-24.905-3.669-37.581-4.736 3.58-6.31 7.526-13.146 11.823-20.587l76.343-132.233c9.617-16.661 18.505-32.064 26.982-42.88 8.307-10.594 23.898-26.901 48.243-24.815 24.661 2.108 37.065 21.188 43.217 33.186 6.234 12.147 11.947 28.868 18.082 46.831l11.127 32.555c6.17 18.048 9.882 28.727 13.513 36.147 1.655 3.388 2.82 5.047 3.46 5.828 0.294 0.354 0.508 0.542 0.508 0.542l0.055 0.043 0.060 0.038 0.124 0.060c0 0 0.269 0.090 0.725 0.166 0.994 0.166 3.017 0.341 6.78 0.081 8.239-0.567 19.341-2.688 38.059-6.37l33.762-6.639c18.62-3.669 35.955-7.078 49.591-7.757 13.466-0.67 36.19 0.533 50.351 20.83 13.978 20.045 7.65 41.702 2.628 54.191-5.129 12.749-14.025 28.151-23.642 44.804l-78.711 136.333c-2.061 3.575-4.058 7.031-5.995 10.372zM461.679 205.397c-13.146 1.434-26.133 3.426-38.931 5.952-116.366 22.955-216.848 89.865-283.512 182.669-3.782-6.404-7.767-13.308-12.058-20.74l-77.908-134.942c-9.62-16.657-18.515-32.060-23.644-44.809-5.023-12.489-11.35-34.146 2.631-54.191 14.157-20.297 36.882-21.5 50.351-20.83 13.636 0.678 30.971 4.087 49.592 7.757l33.76 6.639c18.717 3.682 29.821 5.803 38.060 6.37 3.763 0.26 5.783 0.085 6.778-0.081 0.457-0.077 0.726-0.166 0.726-0.166l0.125-0.060 0.113-0.081c0 0 0.213-0.188 0.508-0.542 0.642-0.781 1.803-2.441 3.46-5.828 3.629-7.42 7.342-18.099 13.512-36.147l11.128-32.555c6.137-17.963 11.849-34.679 18.080-46.831 6.154-11.998 18.559-31.078 43.216-33.186 24.349-2.086 39.94 14.221 48.244 24.815 8.478 10.816 17.369 26.223 26.985 42.88l76.342 132.228c4.544 7.872 8.7 15.070 12.442 21.679z" />
<glyph unicode="&#xe90d;" glyph-name="Award-3" d="M832 597.333c0-176.73-143.27-320-320-320s-320 143.27-320 320c0 176.731 143.269 320 320 320s320-143.269 320-320zM768 311.113c-67.938-60.804-157.649-97.779-256-97.779-98.349 0-188.063 36.975-256 97.779v-199.27c0-66.739 0-100.109 21.29-109.632 21.29-9.519 47.345 12.198 99.454 55.629l40.055 33.387c45.431 37.867 68.143 56.798 95.202 56.798s49.771-18.931 95.202-56.798l40.055-33.387c52.109-43.43 78.161-65.148 99.452-55.629 21.291 9.523 21.291 42.893 21.291 109.632v199.27z" />
<glyph unicode="&#xe90e;" glyph-name="Award-4" d="M400.215 673.437c40.003 0 74.528 26.552 86.42 64.346 8.196 26.066 42.534 26.066 50.731 0 11.891-37.794 46.417-64.346 86.421-64.346 12.373 0 21.611-7.612 25.365-19.55 3.776-12.011 0.691-24.629-10.031-32.678-31.718-23.803-44.506-65.43-32.666-103.070 4.369-13.897-0.862-25.792-10.035-32.678-9.020-6.771-20.318-7.765-30.669 0-31.979 24.004-75.524 24.004-107.503 0-10.351-7.765-21.649-6.771-30.669 0-9.174 6.886-14.405 18.782-10.034 32.678 11.839 37.64-0.95 79.267-32.666 103.070-10.724 8.049-13.81 20.667-10.032 32.678 3.755 11.938 12.991 19.55 25.367 19.55zM512 277.333c-176.731 0-320 143.27-320 320s143.269 320 320 320c176.73 0 320-143.269 320-320s-143.27-320-320-320zM598.417 756.987c-26.987 85.795-145.847 85.795-172.835 0-3.848-12.232-14.449-19.549-25.367-19.549-89.987 0-122.545-115.785-53.752-167.415 9.479-7.115 13.928-20.291 10.032-32.678-13.222-42.036 3.736-81.357 32.666-103.070 29.080-21.824 71.797-26.799 107.505 0 9.216 6.921 21.453 6.921 30.669 0 35.708-26.799 78.426-21.824 107.503 0 28.932 21.713 45.888 61.035 32.67 103.070-3.9 12.387 0.55 25.563 10.031 32.678 68.791 51.63 36.233 167.415-53.751 167.415-10.918 0-21.521 7.318-25.37 19.549zM512 213.333c98.351 0 188.062 36.975 256 97.779v-199.27c0-66.739 0-100.109-21.291-109.632-21.291-9.519-47.343 12.198-99.452 55.629l-40.055 33.387c-45.431 37.867-68.143 56.798-95.202 56.798s-49.771-18.931-95.202-56.798l-40.055-33.387c-52.109-43.43-78.164-65.148-99.454-55.629-21.29 9.523-21.29 42.893-21.29 109.632v199.27c67.937-60.804 157.651-97.779 256-97.779z" />
<glyph unicode="&#xe90f;" glyph-name="Award-5" d="M505.109 906.666c-72.802 0.012-117.226 0.019-154.24-12.008-74.689-24.268-133.246-82.825-157.514-157.514l-0.367-1.145h-12.46c-158.103 0-226.020-200.622-100.43-296.66l0.454-0.35 105.255-74.679c3.814-2.709 7.773-5.201 11.856-7.467 0.465-1.22 0.944-2.445 1.435-3.665 10.9-27.076 32.178-59.563 52.642-80.38 33.349-33.916 67.861-48.96 122.972-72.977l3.663-1.596c23.738-10.351 47.741-19.738 70.025-26.586 10.556-3.243 21.214-6.076 31.612-8.132v-110.174h-138.665c-17.673 0-32-14.327-32-32s14.327-32 32-32h341.331c17.677 0 32 14.327 32 32s-14.323 32-32 32h-138.667v110.174c10.402 2.057 21.060 4.89 31.616 8.132 22.285 6.848 46.289 16.235 70.025 26.586l3.665 1.596c55.108 24.017 89.621 39.061 122.97 72.977 20.463 20.817 41.741 53.303 52.642 80.38 0.478 1.19 0.943 2.377 1.399 3.567 4.169 2.372 8.222 4.954 12.139 7.731l105.468 74.863c125.594 96.038 57.677 296.66-100.429 296.66h-12.467l-0.367 1.145c-24.269 74.689-82.825 133.246-157.513 157.514-37.013 12.027-81.438 12.020-154.24 12.008h-13.811zM180.528 671.999h2.231c-1.413-24.965-1.412-54.905-1.411-92.418v-63.997c-0.003-26.671-0.006-49.668 0.853-70.242l-63.652 45.163c-76.394 58.988-34.743 181.494 61.979 181.494zM905.489 490.505l-63.659-45.167c0.858 20.565 0.853 43.554 0.853 70.208v64.037c0 37.508 0 67.453-1.412 92.416h2.236c96.721 0 138.372-122.506 61.982-181.494z" />
<glyph unicode="&#xe910;" glyph-name="Award-6" d="M500.617 620.269c3.802 12.084 18.987 12.084 22.788 0 9.92-31.54 38.81-53.859 72.444-53.859 3.277 0 5.38-0.972 6.946-2.223 1.783-1.426 3.477-3.756 4.45-6.839 1.958-6.227 0.269-11.982-4.698-15.71-26.564-19.939-37.201-54.713-27.328-86.098 2.172-6.908-0.286-12.403-4.693-15.71-2.257-1.694-4.612-2.432-6.575-2.492-1.694-0.055-3.959 0.341-6.822 2.492-26.833 20.134-63.403 20.134-90.236 0-2.863-2.15-5.129-2.547-6.822-2.492-1.963 0.060-4.318 0.798-6.575 2.492-4.407 3.307-6.865 8.802-4.693 15.71 9.873 31.386-0.764 66.159-27.33 86.098-4.967 3.728-6.653 9.483-4.695 15.71 0.97 3.084 2.665 5.413 4.451 6.839 1.565 1.251 3.665 2.223 6.944 2.223 33.634 0 62.524 22.319 72.444 53.859zM350.869 894.658c37.014 12.027 81.438 12.020 154.24 12.008h13.811c72.802 0.012 117.227 0.019 154.24-12.008 74.688-24.268 133.244-82.825 157.513-157.514l0.367-1.145h12.467c158.106 0 226.022-200.622 100.429-296.66l-0.452-0.35-105.015-74.513c-3.917-2.778-7.97-5.359-12.139-7.731-0.457-1.19-0.922-2.377-1.399-3.567-10.901-27.076-32.179-59.563-52.642-80.38-33.348-33.916-67.861-48.96-122.97-72.977l-3.665-1.596c-23.735-10.351-47.74-19.738-70.025-26.586-10.556-3.243-21.214-6.076-31.616-8.132v-110.174h138.667c17.677 0 32-14.327 32-32s-14.323-32-32-32h-341.331c-17.673 0-32 14.327-32 32s14.327 32 32 32h138.665v110.174c-10.398 2.057-21.056 4.89-31.612 8.132-22.285 6.848-46.288 16.235-70.025 26.586l-3.663 1.596c-55.111 24.017-89.623 39.061-122.972 72.977-20.464 20.817-41.742 53.303-52.642 80.38-0.492 1.22-0.97 2.445-1.435 3.665-4.084 2.266-8.042 4.757-11.856 7.467l-105.709 75.029c-125.591 96.038-57.673 296.66 100.43 296.66h12.46l0.367 1.145c24.268 74.689 82.825 133.246 157.514 157.514zM182.759 671.999h-2.231c-96.721 0-138.373-122.506-61.979-181.494l63.652-45.163c-0.859 20.574-0.856 43.571-0.853 70.242v63.997c-0.002 37.513-0.003 67.453 1.411 92.418zM841.83 445.338l63.659 45.167c76.39 58.988 34.739 181.494-61.982 181.494h-2.236c1.412-24.962 1.412-54.907 1.412-92.414v-64.039c0-26.654 0.004-49.643-0.853-70.208zM584.457 639.473c-22.588 71.813-122.304 71.813-144.892 0-1.882-5.978-6.839-9.063-11.392-9.063-75.755 0-102.395-96.972-45.117-139.961 4.33-3.247 6.624-9.574 4.695-15.71-11.023-35.042 3.162-67.959 27.329-86.097 24.315-18.253 60.283-22.481 90.231 0 4.070 3.051 9.331 3.051 13.402 0 29.948-22.481 65.911-18.253 90.231 0 24.166 18.138 38.349 51.055 27.328 86.097-1.929 6.135 0.363 12.463 4.693 15.71 57.28 42.989 30.639 139.961-45.116 139.961-4.553 0-9.515 3.084-11.392 9.063z" />
<glyph unicode="&#xe911;" glyph-name="Backward-5-Seconds" d="M352 490.667c0 64.801 52.532 117.333 117.333 117.333h160.427c17.673 0 32-14.327 32-32s-14.327-32-32-32h-160.427c-29.457 0-53.333-23.876-53.333-53.333v-42.667c0-5.892 4.776-10.667 10.667-10.667h170.667c41.237 0 74.667-33.429 74.667-74.667v-42.667c0-64.802-52.531-117.333-117.333-117.333h-170.667c-17.673 0-32 14.327-32 32s14.327 32 32 32h170.667c29.457 0 53.333 23.876 53.333 53.333v42.667c0 5.892-4.774 10.667-10.667 10.667h-170.667c-41.237 0-74.667 33.429-74.667 74.667v42.667zM107.209 917.476c0.079 17.673 14.47 31.936 32.143 31.857s31.936-14.47 31.857-32.143l-0.378-84.724c-0.154-34.535-0.209-57.733 1.708-75.283l0.072-0.651c19.475 21.411 40.948 40.97 64.127 58.385 76.669 57.603 172.024 91.75 275.263 91.75 253.316 0 458.667-205.352 458.667-458.667 0-253.316-205.35-458.667-458.667-458.667-253.315 0-458.667 205.35-458.667 458.667 0 17.673 14.327 32 32 32s32-14.327 32-32c0-217.967 176.698-394.667 394.667-394.667 217.967 0 394.667 176.7 394.667 394.667 0 217.968-176.7 394.667-394.667 394.667-88.902 0-170.855-29.356-236.82-78.917-21.29-15.995-40.911-34.095-58.554-53.987 1.209-0.162 2.472-0.315 3.792-0.459 17.551-1.917 40.748-1.862 75.283-1.708l84.724 0.378c17.673 0.079 32.064-14.184 32.143-31.857s-14.184-32.064-31.857-32.143l-86.572-0.386c-32.208-0.145-59.071-0.265-80.668 2.093-22.653 2.474-43.531 8.003-61.668 22.039-3.019 2.336-5.919 4.817-8.689 7.433-4.39 4.145-8.456 8.629-12.158 13.414-14.036 18.137-19.566 39.015-22.039 61.668-2.358 21.597-2.238 48.459-2.093 80.666l0.386 86.574z" />
<glyph unicode="&#xe912;" glyph-name="Backward-10-Seconds" d="M384 245.333c-17.673 0-32 14.327-32 32v221.41l-30.706-30.703c-12.497-12.497-32.758-12.497-45.255 0s-12.497 32.755 0 45.252l42.667 42.668c35.904 35.904 97.294 10.475 97.294-40.3v-238.327c0-17.673-14.327-32-32-32zM640 565.333c-64.802 0-117.333-52.531-117.333-117.333v-85.333c0-64.802 52.531-117.333 117.333-117.333s117.333 52.531 117.333 117.333v85.333c0 64.802-52.531 117.333-117.333 117.333zM586.667 448c0 29.457 23.876 53.333 53.333 53.333s53.333-23.876 53.333-53.333v-85.333c0-29.457-23.876-53.333-53.333-53.333s-53.333 23.876-53.333 53.333v85.333zM107.209 917.476c0.079 17.673 14.47 31.936 32.143 31.857s31.936-14.47 31.857-32.143l-0.378-84.724c-0.154-34.535-0.209-57.733 1.708-75.283l0.072-0.651c19.475 21.411 40.948 40.97 64.127 58.385 76.669 57.603 172.024 91.75 275.263 91.75 253.316 0 458.667-205.352 458.667-458.667 0-253.316-205.35-458.667-458.667-458.667-253.315 0-458.667 205.35-458.667 458.667 0 17.673 14.327 32 32 32s32-14.327 32-32c0-217.967 176.698-394.667 394.667-394.667 217.967 0 394.667 176.7 394.667 394.667 0 217.968-176.7 394.667-394.667 394.667-88.902 0-170.855-29.356-236.82-78.917-21.29-15.995-40.911-34.095-58.554-53.987 1.209-0.162 2.472-0.315 3.792-0.459 17.551-1.917 40.748-1.862 75.283-1.708l84.724 0.378c17.673 0.079 32.064-14.184 32.143-31.857s-14.184-32.064-31.857-32.143l-86.572-0.386c-32.208-0.145-59.071-0.265-80.668 2.093-22.653 2.474-43.531 8.003-61.668 22.039-2.892 2.238-5.674 4.609-8.339 7.104-4.524 4.237-8.707 8.832-12.508 13.743-14.036 18.137-19.566 39.015-22.039 61.668-2.358 21.597-2.238 48.459-2.093 80.666l0.386 86.574z" />
<glyph unicode="&#xe913;" glyph-name="Backward" d="M540.924 583.579c0.405-4.492 0.755-9.155 1.062-13.994 4.1 3.226 8.363 6.413 12.774 9.583 27.563 19.814 65.084 41.856 112.482 69.701l2.931 1.721c47.39 27.841 84.915 49.885 115.567 64.268 30.801 14.453 59.52 23.632 88.397 20.544 44.019-4.707 83.831-28.181 109.649-64.338 16.866-23.616 23.377-53.197 26.47-87.485 3.076-34.141 3.076-78.179 3.076-133.915v-3.319c0-55.74 0-99.78-3.076-133.922-3.093-34.287-9.609-63.868-26.47-87.484-25.818-36.16-65.63-59.631-109.649-64.337-28.877-3.089-57.596 6.089-88.397 20.544-30.652 14.383-68.173 36.425-115.567 64.265l-2.931 1.724c-47.398 27.844-84.919 49.886-112.482 69.7-4.412 3.17-8.674 6.357-12.774 9.583-0.307-4.838-0.657-9.502-1.062-13.995-3.093-34.287-9.604-63.868-26.47-87.484-25.818-36.16-65.63-59.631-109.649-64.337-28.877-3.089-57.597 6.089-88.396 20.544-30.652 14.383-68.175 36.425-115.566 64.265l-2.931 1.724c-47.401 27.844-84.923 49.886-112.485 69.7-27.745 19.947-49.728 40.555-61.398 67.226-17.815 40.713-17.815 87.168 0 127.885 11.669 26.668 33.653 47.278 61.398 67.223 27.562 19.814 65.084 41.856 112.485 69.701l2.93 1.721c47.392 27.841 84.915 49.885 115.567 64.268 30.799 14.453 59.519 23.632 88.396 20.544 44.019-4.707 83.831-28.181 109.649-64.338 16.866-23.616 23.377-53.197 26.47-87.485z" />
<glyph unicode="&#xe914;" glyph-name="Bag-1" d="M548.578 704c58.014 0 102.191 0.001 137.429-3.703 27.84-2.926 51.81-8.291 74.325-18.614 42.901-19.665 79.215-51.287 104.597-91.072 15.36-24.081 24.478-51.018 31.637-83.88 7.014-32.192 12.591-72.329 19.682-123.388l0.393-2.833c9.126-65.711 16.26-117.082 18.428-158.46 2.202-42.010-0.461-77.018-13.099-109.158-20.655-52.531-58.795-96.337-107.985-124.023-30.097-16.939-64.405-24.388-106.321-27.989-41.28-3.546-93.141-3.546-159.484-3.546h-72.367c-66.341 0-118.202 0-159.483 3.546-41.914 3.601-76.224 11.051-106.32 27.989-49.191 27.686-87.331 71.492-107.986 124.023-12.638 32.141-15.299 67.149-13.099 109.158 2.167 41.378 9.301 92.745 18.428 158.455l0.393 2.829c7.092 51.063 12.666 91.204 19.682 123.396 7.16 32.862 16.276 59.799 31.637 83.88 25.38 39.785 61.697 71.407 104.595 91.072 22.518 10.323 46.488 15.689 74.325 18.614 35.242 3.704 79.416 3.703 137.431 3.703h73.161zM309.333 714.667c0 111.93 90.737 202.667 202.667 202.667 111.932 0 202.667-90.737 202.667-202.667v-213.333c0-17.673-14.327-32-32-32s-32 14.327-32 32v213.333c0 76.584-62.084 138.667-138.667 138.667s-138.667-62.083-138.667-138.667v-213.333c0-17.673-14.327-32-32-32s-32 14.327-32 32v213.333z" />
<glyph unicode="&#xe915;" glyph-name="Bag-2" d="M266.913 715.135c5.821 130.326 113.323 234.199 245.083 234.199 131.763 0 239.266-103.873 245.086-234.199 1.088-0.473 2.172-0.957 3.251-1.452 37.756-17.308 70.413-43.876 95.006-77.12l-32.593-32.516-36.855-36.856c-71.753-71.75-123.337-123.24-167.829-157.185-43.755-33.387-76.868-46.775-111.241-46.775-34.377 0-67.49 13.389-111.244 46.775-44.493 33.946-96.078 85.436-167.829 157.185l-63.381 63.381c25.024 36.048 59.299 64.776 99.296 83.111 1.080 0.495 2.164 0.979 3.252 1.452zM332.765 731.687c36.394 4.323 80.798 4.319 138.54 4.314h81.387c57.741 0.005 102.144 0.009 138.539-4.314-13.329 87.006-88.499 153.647-179.234 153.647-90.732 0-165.901-66.64-179.231-153.647zM886.251 576.992l-18.611-18.564-38.225-38.224c-69.641-69.641-124.224-124.224-172.531-161.084-49.451-37.726-96.073-59.891-150.063-59.891-53.995 0-100.618 22.165-150.065 59.891-48.31 36.86-102.888 91.439-172.531 161.084l-48.977 48.976c-11.343-37.465-17.982-85.281-26.987-150.147l-0.906-6.528c-9.127-65.711-16.261-117.077-18.428-158.455-2.2-42.010 0.461-77.018 13.099-109.158 20.656-52.531 58.795-96.337 107.986-124.023 30.096-16.939 64.406-24.388 106.32-27.989 41.281-3.546 93.142-3.546 159.483-3.546h72.367c66.342 0 118.204 0 159.484 3.546 41.916 3.601 76.224 11.051 106.321 27.989 49.19 27.686 87.33 71.492 107.985 124.023 12.638 32.141 15.3 67.149 13.099 109.158-2.167 41.378-9.301 92.749-18.428 158.46l-1.041 7.488c-9.532 68.681-16.422 118.312-29.35 156.995z" />
<glyph unicode="&#xe916;" glyph-name="Bag-3" d="M511.996 906.667c-103.685 0-189.185-77.865-201.216-178.31-16.798-3.217-32.274-7.868-47.119-14.673-42.898-19.665-79.215-51.287-104.595-91.072-15.362-24.081-24.477-51.018-31.637-83.879-7.016-32.193-12.59-72.334-19.682-123.398l-0.393-2.829c-9.127-65.711-16.261-117.077-18.428-158.455-2.2-42.010 0.461-77.018 13.099-109.158 20.656-52.531 58.795-96.337 107.986-124.023 30.096-16.939 64.406-24.388 106.32-27.989 41.281-3.546 93.142-3.546 159.483-3.546h72.367c66.342 0 118.204 0 159.484 3.546 41.916 3.601 76.224 11.051 106.321 27.989 49.19 27.686 87.33 71.492 107.985 124.023 12.638 32.141 15.3 67.149 13.099 109.158-2.167 41.378-9.301 92.749-18.428 158.46l-0.393 2.825c-7.091 51.063-12.668 91.204-19.682 123.398-7.159 32.861-16.277 59.798-31.637 83.879-25.382 39.785-61.696 71.407-104.597 91.072-14.844 6.805-30.319 11.456-47.117 14.673-12.032 100.446-97.532 178.31-201.22 178.31zM475.418 736c-38.49 0-70.888 0-98.627-1.081 14.051 61.7 69.251 107.747 135.205 107.747 65.958 0 121.156-46.048 135.211-107.747-27.742 1.081-60.139 1.081-98.628 1.081h-73.161zM363.961 513.293c-12.497 12.497-32.758 12.497-45.255 0s-12.497-32.755 0-45.252l17.067-17.067c97.328-97.327 255.127-97.327 352.454 0l17.067 17.067c12.497 12.497 12.497 32.755 0 45.252s-32.755 12.497-45.252 0l-17.067-17.067c-72.337-72.333-189.611-72.333-261.946 0l-17.067 17.067z" />
<glyph unicode="&#xe917;" glyph-name="Bag-4" d="M512 949.333c-124.65 0-227.577-92.95-243.264-213.333h-28.27c-42.483 0.001-77.712 0.003-105.361-3.861-29.066-4.061-55.184-13.029-75.046-35.22s-25.891-49.14-26.718-78.477c-0.786-27.906 3.105-62.92 7.798-105.14l13.137-118.229c9.815-88.337 17.523-157.717 30.615-211.639 13.42-55.27 33.379-98.406 70.432-131.571 37.089-33.195 82.379-48.252 139.1-55.475 55.378-7.053 125.699-7.053 215.29-7.053h4.57c89.591 0 159.915 0 215.292 7.053 56.721 7.223 102.012 22.281 139.102 55.475 37.052 33.165 57.011 76.301 70.43 131.571 13.094 53.922 20.8 123.298 30.613 211.631l13.141 118.238c4.689 42.22 8.58 77.235 7.795 105.14-0.828 29.337-6.852 56.285-26.718 78.477-19.861 22.192-45.978 31.159-75.046 35.22-27.648 3.863-62.878 3.862-105.361 3.861h-28.267c-15.684 120.381-118.618 213.333-243.264 213.333zM512 885.333c89.229 0 163.409-64.454 178.517-149.333h-357.039c15.108 84.878 89.293 149.333 178.522 149.333zM278.627 555.961c-12.497 12.497-32.758 12.497-45.255 0s-12.497-32.756 0-45.254l25.6-25.6c139.743-139.746 366.312-139.746 506.054 0l25.6 25.6c12.497 12.497 12.497 32.757 0 45.254s-32.755 12.497-45.252 0l-25.6-25.601c-114.752-114.748-300.797-114.748-415.546 0l-25.6 25.601z" />
<glyph unicode="&#xe918;" glyph-name="Bag-5" d="M268.736 736c15.689 120.384 118.614 213.333 243.264 213.333 124.646 0 227.575-92.952 243.264-213.333h28.267c42.483 0.001 77.713 0.003 105.361-3.861 29.069-4.061 55.185-13.029 75.046-35.22 19.866-22.192 25.89-49.14 26.718-78.477 0.785-27.906-3.106-62.919-7.795-105.14l-13.137-118.234c-9.818-88.333-17.523-157.713-30.618-211.635-13.419-55.27-33.378-98.406-70.43-131.571-37.090-33.195-82.381-48.252-139.102-55.475-55.377-7.053-125.7-7.053-215.292-7.053h-4.565c-89.594 0-159.916 0-215.294 7.053-56.721 7.223-102.010 22.281-139.1 55.475-37.054 33.165-57.013 76.301-70.432 131.571-13.092 53.922-20.8 123.302-30.615 211.639l-13.137 118.229c-4.693 42.221-8.584 77.234-7.798 105.14 0.827 29.337 6.855 56.285 26.718 78.477s45.98 31.159 75.046 35.22c27.648 3.863 62.878 3.862 105.361 3.861h28.27zM690.522 736c-15.113 84.879-89.293 149.333-178.522 149.333s-163.415-64.457-178.522-149.333h357.044z" />
<glyph unicode="&#xe919;" glyph-name="Bag-6" d="M512 949.333c-124.65 0-227.576-92.949-243.264-213.333h-28.27c-42.483 0.001-77.712 0.003-105.361-3.861-29.066-4.061-55.184-13.029-75.046-35.22s-25.891-49.14-26.718-78.477c-0.786-27.906 3.105-62.92 7.798-105.14l13.137-118.229c9.815-88.337 17.523-157.717 30.615-211.639 13.42-55.27 33.379-98.406 70.432-131.571 37.089-33.195 82.379-48.252 139.1-55.475 55.378-7.053 125.699-7.053 215.29-7.053h4.57c89.591 0 159.915 0 215.292 7.053 56.721 7.223 102.012 22.281 139.102 55.475 37.052 33.165 57.011 76.301 70.43 131.571 13.094 53.922 20.8 123.298 30.613 211.631l13.141 118.238c4.689 42.22 8.58 77.235 7.795 105.14-0.828 29.337-6.852 56.285-26.718 78.477-19.861 22.192-45.978 31.159-75.046 35.22-27.648 3.863-62.878 3.862-105.361 3.861h-28.267c-15.68 120.374-118.618 213.333-243.264 213.333zM512 885.333c89.229 0 163.405-64.448 178.517-149.333h-357.040c15.107 84.877 89.294 149.333 178.522 149.333zM298.667 490.667c23.564 0 42.667 19.102 42.667 42.667s-19.103 42.667-42.667 42.667c-23.564 0-42.667-19.103-42.667-42.667s19.103-42.667 42.667-42.667zM725.333 490.667c23.565 0 42.667 19.102 42.667 42.667s-19.102 42.667-42.667 42.667c-23.565 0-42.667-19.103-42.667-42.667s19.102-42.667 42.667-42.667z" />
<glyph unicode="&#xe91a;" glyph-name="Bag-7" d="M511.996 906.667c-103.685 0-189.185-77.865-201.216-178.31-16.798-3.217-32.274-7.868-47.119-14.673-42.898-19.665-79.215-51.287-104.595-91.072-15.362-24.081-24.477-51.018-31.637-83.879-7.016-32.193-12.59-72.334-19.682-123.398l-0.393-2.829c-9.127-65.711-16.261-117.077-18.428-158.455-2.2-42.010 0.461-77.018 13.099-109.158 20.656-52.531 58.795-96.337 107.986-124.023 30.096-16.939 64.406-24.388 106.32-27.989 41.281-3.546 93.142-3.546 159.483-3.546h72.367c66.342 0 118.204 0 159.484 3.546 41.916 3.601 76.224 11.051 106.321 27.989 49.19 27.686 87.33 71.492 107.985 124.023 12.638 32.141 15.3 67.149 13.099 109.158-2.167 41.378-9.301 92.749-18.428 158.46l-0.393 2.825c-7.091 51.063-12.668 91.204-19.682 123.398-7.159 32.861-16.277 59.798-31.637 83.879-25.382 39.785-61.696 71.407-104.597 91.072-14.844 6.805-30.319 11.456-47.117 14.673-12.032 100.446-97.532 178.31-201.22 178.31zM475.418 736c-38.49 0-70.888 0-98.627-1.081 14.051 61.7 69.251 107.747 135.205 107.747 65.958 0 121.156-46.048 135.211-107.747-27.742 1.081-60.139 1.081-98.628 1.081h-73.161zM341.333 608c-17.673 0-32-14.327-32-32s14.327-32 32-32h341.333c17.673 0 32 14.327 32 32s-14.327 32-32 32h-341.333z" />
<glyph unicode="&#xe91b;" glyph-name="Bag-8" d="M512 949.333c-124.649 0-227.586-92.959-243.266-213.333h-28.268c-42.483 0.001-77.712 0.003-105.361-3.861-29.066-4.061-55.184-13.029-75.046-35.22s-25.891-49.14-26.718-78.477c-0.786-27.906 3.105-62.92 7.798-105.14l13.137-118.229c9.815-88.337 17.523-157.717 30.615-211.639 13.42-55.27 33.379-98.406 70.432-131.571 37.089-33.195 82.379-48.252 139.1-55.475 55.378-7.053 125.699-7.053 215.29-7.053h4.57c89.591 0 159.915 0 215.292 7.053 56.721 7.223 102.012 22.281 139.102 55.475 37.052 33.165 57.011 76.301 70.43 131.571 13.094 53.922 20.8 123.298 30.613 211.631l13.141 118.238c4.689 42.22 8.58 77.235 7.795 105.14-0.828 29.337-6.852 56.285-26.718 78.477-19.861 22.192-45.978 31.159-75.046 35.22-27.648 3.863-62.878 3.862-105.361 3.861h-28.267c-15.68 120.374-118.618 213.333-243.264 213.333zM512 885.333c89.229 0 163.405-64.448 178.517-149.333h-357.037c15.114 84.886 89.29 149.333 178.52 149.333zM256 565.333c-17.673 0-32-14.327-32-32s14.327-32 32-32h512c17.673 0 32 14.327 32 32s-14.327 32-32 32h-512z" />
<glyph unicode="&#xe91c;" glyph-name="Battery-Charging" d="M341.333 704h170.667c39.637 0 59.456 0 76.041-2.627 73.079-11.575 133.542-59.771 162.167-125.373h60.459c47.13 0 85.333-38.205 85.333-85.333v-85.333c0-47.13-38.204-85.333-85.333-85.333h-60.459c-28.625-65.604-89.088-113.801-162.167-125.372-16.585-2.628-36.403-2.628-76.041-2.628h-170.667c-39.638 0-59.456 0-76.039 2.628-91.284 14.455-162.876 86.050-177.334 177.331-2.627 16.585-2.627 36.403-2.627 76.041s0 59.456 2.627 76.041c14.458 91.283 86.050 162.875 177.334 177.333 16.583 2.627 36.401 2.627 76.039 2.627zM425.718 557.245c10.356 14.32 7.148 34.325-7.174 44.683-14.32 10.358-34.325 7.146-44.683-7.174l-24.51-33.885c-11.32-15.647-21.239-29.362-27.933-40.946-6.665-11.541-13.823-26.923-11.709-44.672 1.949-16.358 9.748-31.424 21.908-42.487 13.143-11.955 29.736-15.177 43.038-16.563 13.363-1.395 30.358-1.438 49.801-1.489l1.626-0.004c21.918-0.060 35.874-0.137 45.794-1.169 4.092-0.427 6.43-0.934 7.595-1.25 0.085-0.141 0.158-0.286 0.226-0.431-0.465-1.131-1.438-3.204-3.401-6.477-5.077-8.469-13.342-19.58-26.411-37.039l-21.833-29.167c-10.59-14.148-7.706-34.202 6.443-44.791s34.202-7.706 44.796 6.443l22.818 30.485c11.789 15.748 22.093 29.513 29.073 41.148 6.921 11.533 14.447 26.999 12.506 44.962-1.783 16.503-9.519 31.757-21.709 42.97-13.222 12.16-30.046 15.407-43.477 16.806-13.547 1.408-30.814 1.455-50.615 1.506l-1.633 0.004c-21.55 0.055-35.233 0.132-44.962 1.148-3.996 0.418-6.278 0.913-7.416 1.22-0.094 0.154-0.177 0.307-0.251 0.465 0.437 1.109 1.353 3.149 3.214 6.37 4.843 8.384 12.763 19.405 25.33 36.779l23.549 32.556z" />
<glyph unicode="&#xe91d;" glyph-name="Battery-Fully" d="M341.333 704h170.667c39.637 0 59.456 0 76.041-2.627 73.079-11.575 133.542-59.771 162.167-125.373h60.459c47.13 0 85.333-38.205 85.333-85.333v-85.333c0-47.13-38.204-85.333-85.333-85.333h-60.459c-28.625-65.604-89.088-113.801-162.167-125.372-16.585-2.628-36.403-2.628-76.041-2.628h-170.667c-39.638 0-59.456 0-76.039 2.628-91.284 14.455-162.876 86.050-177.334 177.331-2.627 16.585-2.627 36.403-2.627 76.041s0 59.456 2.627 76.041c14.458 91.283 86.050 162.875 177.334 177.333 16.583 2.627 36.401 2.627 76.039 2.627zM284.622 547.644c-7.904 15.807-27.125 22.214-42.932 14.311s-22.214-27.125-14.311-42.932l4.504-9.011c19.519-39.036 19.519-84.988 0-124.023l-4.504-9.011c-7.904-15.808-1.496-35.029 14.311-42.931 15.807-7.906 35.029-1.498 42.932 14.31l4.504 9.007c28.528 57.058 28.528 124.215 0 181.272l-4.504 9.009zM412.356 561.955c15.808 7.904 35.030 1.496 42.932-14.311l4.506-9.009c28.527-57.056 28.527-124.214 0-181.272l-4.506-9.007c-7.902-15.808-27.123-22.217-42.932-14.31-15.807 7.902-22.214 27.123-14.311 42.931l4.504 9.011c19.519 39.036 19.519 84.988 0 124.023l-4.504 9.011c-7.904 15.807-1.496 35.028 14.311 42.932zM625.954 547.644c-7.902 15.807-27.123 22.214-42.931 14.311s-22.217-27.125-14.31-42.932l4.506-9.011c19.516-39.036 19.516-84.988 0-124.023l-4.506-9.011c-7.906-15.808-1.498-35.029 14.31-42.931 15.808-7.906 35.029-1.498 42.931 14.31l4.506 9.007c28.527 57.058 28.527 124.215 0 181.272l-4.506 9.009z" />
<glyph unicode="&#xe91e;" glyph-name="Battery-Low" d="M341.333 704h170.667c39.637 0 59.456 0 76.041-2.627 73.079-11.575 133.542-59.771 162.167-125.373h60.459c47.13 0 85.333-38.205 85.333-85.333v-85.333c0-47.13-38.204-85.333-85.333-85.333h-60.459c-28.625-65.604-89.088-113.801-162.167-125.372-16.585-2.628-36.403-2.628-76.041-2.628h-170.667c-39.638 0-59.456 0-76.039 2.628-91.284 14.455-162.876 86.050-177.334 177.331-2.627 16.585-2.627 36.403-2.627 76.041s0 59.456 2.627 76.041c14.458 91.283 86.050 162.875 177.334 177.333 16.583 2.627 36.401 2.627 76.039 2.627zM284.622 547.644c-7.904 15.807-27.125 22.214-42.932 14.311s-22.214-27.125-14.311-42.932l4.504-9.011c19.519-39.036 19.519-84.988 0-124.023l-4.504-9.011c-7.904-15.808-1.496-35.029 14.311-42.931 15.807-7.906 35.029-1.498 42.932 14.31l4.504 9.007c28.528 57.058 28.528 124.215 0 181.272l-4.504 9.009z" />
<glyph unicode="&#xe91f;" glyph-name="Battery-Normal" d="M341.333 704h170.667c39.637 0 59.456 0 76.041-2.627 73.079-11.575 133.542-59.771 162.167-125.373h60.459c47.13 0 85.333-38.205 85.333-85.333v-85.333c0-47.13-38.204-85.333-85.333-85.333h-60.459c-28.625-65.604-89.088-113.801-162.167-125.372-16.585-2.628-36.403-2.628-76.041-2.628h-170.667c-39.638 0-59.456 0-76.039 2.628-91.284 14.455-162.876 86.050-177.334 177.331-2.627 16.585-2.627 36.403-2.627 76.041s0 59.456 2.627 76.041c14.458 91.283 86.050 162.875 177.334 177.333 16.583 2.627 36.401 2.627 76.039 2.627zM284.622 547.644c-7.904 15.807-27.125 22.214-42.932 14.311s-22.214-27.125-14.311-42.932l4.504-9.011c19.519-39.036 19.519-84.988 0-124.023l-4.504-9.011c-7.904-15.808-1.496-35.029 14.311-42.931 15.807-7.906 35.029-1.498 42.932 14.31l4.504 9.007c28.528 57.058 28.528 124.215 0 181.272l-4.504 9.009zM455.287 547.644c-7.902 15.807-27.123 22.214-42.932 14.311-15.807-7.904-22.214-27.125-14.311-42.932l4.504-9.011c19.519-39.036 19.519-84.988 0-124.023l-4.504-9.011c-7.904-15.808-1.496-35.029 14.311-42.931 15.808-7.906 35.030-1.498 42.932 14.31l4.506 9.007c28.527 57.058 28.527 124.215 0 181.272l-4.506 9.009z" />
<glyph unicode="&#xe920;" glyph-name="Bold" d="M401.771 618.667c0 5.891 4.776 10.667 10.667 10.667h146.837c0-0.001 0-0.003 0.055-0.005 1.276-0.058 16.764-0.765 31.799-9.224 13.871-7.807 31.087-23.956 31.087-65.437 0-41.489-17.22-57.638-31.095-65.442-7.987-4.493-16.286-6.882-22.801-8.107-3.196-0.597-5.773-0.879-7.407-1.011-0.815-0.068-1.378-0.094-1.647-0.102l-0.102-0.004h-157.393v138.667zM559.266 266.671l-0.102-0.004h-146.726c-5.891 0-10.667 4.774-10.667 10.667v138.667l157.495-0.004c0.269-0.009 0.832-0.034 1.647-0.102 1.634-0.132 4.211-0.414 7.407-1.011 6.515-1.225 14.814-3.614 22.801-8.107 13.875-7.804 31.095-23.953 31.095-65.442s-17.22-57.638-31.095-65.442c-7.987-4.493-16.286-6.882-22.801-8.107-3.196-0.597-5.773-0.879-7.407-1.011-0.815-0.068-1.378-0.094-1.647-0.102zM510.071 864c-78.362 0-139.784 0-188.515-5.279-49.73-5.388-90.023-16.58-124.426-41.575-20.828-15.132-39.144-33.448-54.276-54.276-24.995-34.403-36.187-74.697-41.575-124.426-5.28-48.731-5.28-110.153-5.279-188.515v-3.857c0-78.362 0-139.785 5.279-188.514 5.388-49.732 16.58-90.022 41.575-124.429 15.132-20.826 33.448-39.142 54.276-54.272 34.403-24.998 74.697-36.19 124.426-41.579 48.73-5.278 110.153-5.278 188.511-5.278h3.866c78.357 0 139.78 0 188.51 5.278 49.732 5.389 90.022 16.58 124.429 41.579 20.826 15.13 39.142 33.446 54.272 54.272 24.998 34.406 36.19 74.697 41.579 124.429 5.278 48.73 5.278 110.153 5.278 188.51v3.866c0 78.357 0 139.781-5.278 188.511-5.389 49.73-16.58 90.023-41.579 124.426-15.13 20.828-33.446 39.144-54.272 54.276-34.406 24.995-74.697 36.187-124.429 41.575-48.73 5.28-110.153 5.28-188.514 5.279h-3.857zM686.217 554.667c0-51.362-18.748-85.338-43.102-106.667 24.354-21.329 43.102-55.305 43.102-106.667 0-65.178-30.191-102.362-63.718-121.225-15.718-8.841-31.125-13.116-42.385-15.228-5.696-1.067-10.526-1.617-14.076-1.903-1.779-0.145-3.255-0.222-4.373-0.265-0.273-0.009-0.525-0.017-0.755-0.021-0.243-0.009-0.461-0.013-0.657-0.017l-0.495-0.009h-0.282c-0.017 0-0.077 0-0.077 32v-32h-146.961c-41.237 0-74.667 33.429-74.667 74.667v341.333c0 41.237 33.43 74.667 74.667 74.667h146.961c1.971 0 32.273-0.099 63.117-17.454 33.523-18.865 63.701-56.050 63.701-121.213z" />
<glyph unicode="&#xe921;" glyph-name="Bookmark-1" d="M213.333 533.333c0 79.415 0 119.122 10.441 151.257 21.103 64.947 72.022 115.866 136.969 136.969 32.135 10.441 71.841 10.441 151.257 10.441s119.121 0 151.258-10.441c64.947-21.103 115.866-72.022 136.969-136.969 10.441-32.135 10.441-71.842 10.441-151.257v-315.196c0-81.796 0-122.697-14.592-144.324-17.822-26.423-48.887-40.713-80.55-37.047-25.916 2.999-56.969 29.615-119.074 82.85-27.337 23.428-41.007 35.145-56.021 40.452-18.394 6.498-38.464 6.498-56.858 0-15.014-5.308-28.685-17.024-56.021-40.452-62.106-53.235-93.158-79.851-119.076-82.85-31.662-3.665-62.726 10.624-80.55 37.047-14.59 21.628-14.59 62.528-14.59 144.324v315.196z" />
<glyph unicode="&#xe922;" glyph-name="Bookmark-2" d="M223.775 684.59c-10.441-32.135-10.441-71.842-10.441-151.257v-315.196c0-81.796 0-122.697 14.59-144.324 17.824-26.423 48.888-40.713 80.55-37.047 25.917 2.999 56.97 29.615 119.076 82.846 27.337 23.433 41.007 35.149 56.021 40.457 18.394 6.498 38.464 6.498 56.858 0 15.014-5.308 28.685-17.024 56.021-40.452 62.106-53.235 93.158-79.851 119.074-82.85 31.663-3.665 62.729 10.624 80.55 37.047 14.592 21.628 14.592 62.528 14.592 144.324v315.196c0 79.415 0 119.122-10.441 151.257-21.103 64.947-72.021 115.866-136.969 136.969-32.137 10.441-71.842 10.441-151.258 10.441s-119.122 0-151.257-10.441c-64.947-21.103-115.866-72.022-136.969-136.969zM384 608c-17.673 0-32-14.327-32-32s14.327-32 32-32h256c17.673 0 32 14.327 32 32s-14.327 32-32 32h-256z" />
<glyph unicode="&#xe923;" glyph-name="Bookmark-3" d="M223.775 684.59c-10.441-32.135-10.441-71.842-10.441-151.257v-315.196c0-81.796 0-122.697 14.59-144.324 17.824-26.423 48.888-40.713 80.55-37.047 25.917 2.999 56.97 29.615 119.076 82.846 27.337 23.433 41.007 35.149 56.021 40.457 18.394 6.498 38.464 6.498 56.858 0 15.014-5.308 28.685-17.024 56.021-40.452 62.106-53.235 93.158-79.851 119.074-82.85 31.663-3.665 62.729 10.624 80.55 37.047 14.592 21.628 14.592 62.528 14.592 144.324v315.196c0 79.415 0 119.122-10.441 151.257-21.103 64.947-72.021 115.866-136.969 136.969-32.137 10.441-71.842 10.441-151.258 10.441s-119.122 0-151.257-10.441c-64.947-21.103-115.866-72.022-136.969-136.969zM512 736c-17.673 0-32-14.327-32-32s14.327-32 32-32c76.582 0 138.667-62.083 138.667-138.667 0-17.673 14.327-32 32-32s32 14.327 32 32c0 111.93-90.735 202.667-202.667 202.667z" />
<glyph unicode="&#xe924;" glyph-name="Buy-1" d="M617.374 811.961c12.497 12.497 32.759 12.497 45.257 0l161.293-161.295h114.743c17.673 0 32-14.327 32-32s-14.327-32-32-32h-23.223c-9.66-36.525-22.153-78.634-36.685-127.633l-43.738-147.435c-17.374-58.594-28.023-94.511-46.69-123.721-32.137-50.283-81.502-87.125-138.846-103.637-33.31-9.587-70.775-9.583-131.887-9.574h-11.196c-61.111-0.009-98.576-0.013-131.886 9.574-57.347 16.512-106.71 53.355-138.847 103.637-18.667 29.21-29.317 65.126-46.689 123.721l-43.729 147.409c-14.538 49.007-27.033 91.127-36.693 127.658h-23.224c-17.673 0-32 14.327-32 32s14.327 32 32 32h125.098l161.294 161.294c12.497 12.497 32.758 12.497 45.255 0s12.498-32.758 0-45.255l-116.039-116.039h432.473l-116.041 116.040c-12.497 12.497-12.497 32.758 0 45.255zM458.667 448c0 17.673-14.327 32-32 32s-32-14.327-32-32v-170.667c0-17.673 14.327-32 32-32s32 14.327 32 32v170.667zM629.333 448c0 17.673-14.327 32-32 32s-32-14.327-32-32v-170.667c0-17.673 14.327-32 32-32s32 14.327 32 32v170.667z" />
<glyph unicode="&#xe925;" glyph-name="Buy-2" d="M73.708 882.421c-4.287 17.145-21.661 27.569-38.806 23.283s-27.569-21.661-23.283-38.807l44.879-179.497 41.762-174.252c17.758-74.091 31.735-132.412 48.322-177.719 17.014-46.477 37.878-82.556 71.353-110.225 2.889-2.385 5.832-4.706 8.828-6.959 34.707-26.108 74.656-37.986 123.817-43.699 47.924-5.572 107.895-5.572 184.084-5.568h25.327c65.92-0.004 117.811-0.004 159.616 4.224 42.82 4.331 78.054 13.316 109.76 33.169 15.040 9.417 29.013 20.437 41.677 32.866 24.998 24.542 41.472 54.345 55.117 91.422h-200.828c-17.673 0-32 14.327-32 32s14.327 32 32 32h220.582c5.214 19.392 10.492 40.67 16.141 64h-364.723c-17.673 0-32 14.327-32 32s14.327 32 32 32h380.049c6.336 27.022 11.307 50.2 13.555 69.866 3.059 26.786 1.809 52.29-11.558 75.577-5.722 9.96-12.873 19.026-21.222 26.909-19.529 18.43-44.041 25.589-70.805 28.855-25.783 3.147-58.543 3.146-98.291 3.145h-676.495l-38.857 155.411zM401.967 21.325c24.803 0 44.911 20.109 44.911 44.915 0 24.802-20.109 44.911-44.911 44.911-24.805 0-44.913-20.109-44.913-44.911 0-24.806 20.108-44.915 44.913-44.915zM671.441 21.325c24.802 0 44.911 20.109 44.911 44.915 0 24.802-20.109 44.911-44.911 44.911-24.806 0-44.915-20.109-44.915-44.911 0-24.806 20.109-44.915 44.915-44.915z" />
<glyph unicode="&#xe926;" glyph-name="Buy-3" d="M73.708 882.42c-4.286 17.146-21.66 27.57-38.806 23.284s-27.57-21.66-23.283-38.806l44.874-179.497 41.763-174.253c17.757-74.091 31.735-132.412 48.322-177.719 17.014-46.477 37.878-82.556 71.353-110.225 2.889-2.385 5.832-4.706 8.827-6.959 34.708-26.108 74.657-37.986 123.817-43.699 47.924-5.572 107.895-5.572 184.089-5.568h25.318c65.92-0.004 117.815-0.004 159.62 4.224 42.82 4.331 78.054 13.316 109.76 33.169 15.040 9.417 29.013 20.437 41.677 32.866 26.692 26.206 43.644 58.377 57.835 99.008 13.854 39.667 25.95 90.133 41.314 154.236l0.892 3.725c9.263 38.65 16.9 70.512 19.853 96.319 3.059 26.786 1.809 52.291-11.558 75.578-5.722 9.96-12.873 19.026-21.222 26.909-19.529 18.43-44.041 25.59-70.805 28.855-25.783 3.147-58.543 3.146-98.291 3.145h-676.495l-38.853 155.41zM394.664 362.658c0 17.673 14.327 32 32 32h255.998c17.677 0 32-14.327 32-32s-14.323-32-32-32h-255.998c-17.673 0-32 14.327-32 32zM401.962 21.325c24.803 0 44.912 20.109 44.912 44.915 0 24.802-20.109 44.911-44.912 44.911s-44.912-20.109-44.912-44.911c0-24.806 20.108-44.915 44.912-44.915zM671.437 21.325c24.802 0 44.911 20.109 44.911 44.915 0 24.802-20.109 44.911-44.911 44.911-24.806 0-44.915-20.109-44.915-44.911 0-24.806 20.109-44.915 44.915-44.915z" />
<glyph unicode="&#xe927;" glyph-name="Calender-1" d="M215.939 748.59c27.034 19.642 59.627 29.815 104.061 35.083v-37.007c0-35.346 28.654-64 64-64s64 28.654 64 64v42.547c19.802 0.12 41.079 0.12 64 0.12s44.198 0 64-0.12v-42.547c0-35.346 28.655-64 64-64s64 28.654 64 64v37.007c44.433-5.268 77.026-15.441 104.060-35.083 18.112-13.158 34.039-29.085 47.198-47.196 24.077-33.142 33.929-74.637 37.956-136.061h-762.426c4.028 61.424 13.876 102.919 37.955 136.061 13.158 18.111 29.085 34.038 47.196 47.196zM128.457 501.342h767.087c0.457-28.416 0.457-60.211 0.457-96.009 0-35.793 0-67.584-0.457-96h-2.991c-36.352 0.004-58.496 0.004-77.598-3.021-104.977-16.627-187.307-98.957-203.934-203.934-3.025-19.102-3.025-41.246-3.021-77.598v-2.991c-28.416-0.457-60.207-0.457-96-0.457-159.988 0-239.983 0-296.061 40.742-18.111 13.158-34.038 29.086-47.196 47.198-40.743 56.077-40.743 136.073-40.743 296.060 0 35.797 0 67.593 0.457 96.009zM384 394.667c-17.673 0-32-14.327-32-32s14.327-32 32-32h256c17.673 0 32 14.327 32 32s-14.327 32-32 32h-256zM808.060 62.076c-33.139-24.077-74.637-33.929-136.060-37.956 0.004 38.844 0.149 55.091 2.231 68.245 12.292 77.594 73.143 138.445 150.737 150.737 13.154 2.082 29.402 2.227 68.245 2.231-4.028-61.423-13.879-102.921-37.956-136.060-13.158-18.112-29.086-34.039-47.198-47.198zM416 874.667c0 17.673-14.327 32-32 32s-32-14.327-32-32v-128c0-17.673 14.327-32 32-32s32 14.327 32 32v128zM672 874.667c0 17.673-14.327 32-32 32s-32-14.327-32-32v-128c0-17.673 14.327-32 32-32s32 14.327 32 32v128z" />
<glyph unicode="&#xe928;" glyph-name="Calender-2" d="M320 783.673c-44.434-5.268-77.027-15.441-104.061-35.083-18.111-13.158-34.038-29.085-47.196-47.196-40.743-56.078-40.743-136.073-40.743-296.061s0-239.983 40.743-296.060c13.158-18.112 29.085-34.039 47.196-47.198 56.078-40.742 136.073-40.742 296.061-40.742 35.793 0 67.584 0 96 0.457v2.991c-0.004 36.352-0.004 58.496 3.021 77.598 16.627 104.977 98.957 187.307 203.934 203.934 19.102 3.025 41.246 3.025 77.598 3.021h2.991c0.457 28.407 0.457 60.194 0.457 95.979 0 159.99 0 240.004-40.742 296.082-13.158 18.111-29.086 34.038-47.198 47.196-27.034 19.642-59.627 29.815-104.060 35.083v-37.007c0-35.346-28.655-64-64-64s-64 28.654-64 64v42.547c-19.802 0.12-41.079 0.12-64 0.12s-44.198 0-64-0.12v-42.547c0-35.346-28.654-64-64-64s-64 28.654-64 64v37.007zM298.667 533.333c23.564 0 42.667 19.103 42.667 42.667s-19.103 42.667-42.667 42.667c-23.564 0-42.667-19.103-42.667-42.667s19.103-42.667 42.667-42.667zM341.333 405.333c0-23.565-19.103-42.667-42.667-42.667s-42.667 19.102-42.667 42.667c0 23.565 19.103 42.667 42.667 42.667s42.667-19.102 42.667-42.667zM512 533.333c23.565 0 42.667 19.103 42.667 42.667s-19.102 42.667-42.667 42.667c-23.565 0-42.667-19.103-42.667-42.667s19.102-42.667 42.667-42.667zM554.667 405.333c0-23.565-19.102-42.667-42.667-42.667s-42.667 19.102-42.667 42.667c0 23.565 19.102 42.667 42.667 42.667s42.667-19.102 42.667-42.667zM512 192c23.565 0 42.667 19.102 42.667 42.667s-19.102 42.667-42.667 42.667c-23.565 0-42.667-19.102-42.667-42.667s19.102-42.667 42.667-42.667zM768 576c0-23.564-19.102-42.667-42.667-42.667s-42.667 19.103-42.667 42.667c0 23.564 19.102 42.667 42.667 42.667s42.667-19.103 42.667-42.667zM725.333 362.667c23.565 0 42.667 19.102 42.667 42.667s-19.102 42.667-42.667 42.667c-23.565 0-42.667-19.102-42.667-42.667s19.102-42.667 42.667-42.667zM341.333 234.667c0-23.565-19.103-42.667-42.667-42.667s-42.667 19.102-42.667 42.667c0 23.565 19.103 42.667 42.667 42.667s42.667-19.102 42.667-42.667zM893.214 245.333c-38.844-0.004-55.091-0.149-68.245-2.231-77.594-12.292-138.445-73.143-150.737-150.737-2.082-13.154-2.227-29.402-2.231-68.245 61.423 4.028 102.921 13.879 136.060 37.956 18.112 13.158 34.039 29.086 47.198 47.198 24.077 33.139 33.929 74.637 37.956 136.060zM416 874.667c0 17.673-14.327 32-32 32s-32-14.327-32-32v-128c0-17.673 14.327-32 32-32s32 14.327 32 32v128zM672 874.667c0 17.673-14.327 32-32 32s-32-14.327-32-32v-128c0-17.673 14.327-32 32-32s32 14.327 32 32v128z" />
<glyph unicode="&#xe929;" glyph-name="Call-Missed" d="M346.105 833.065c-44.889 41.247-113.888 41.247-158.777 0-1.839-1.689-3.801-3.652-6.349-6.201l-38.293-38.293c-38.533-38.533-54.708-94.082-42.887-147.278 67.071-301.82 302.784-537.532 604.603-604.604 53.197-11.819 108.745 4.356 147.277 42.889l38.289 38.289c2.551 2.551 4.514 4.514 6.204 6.353 41.25 44.89 41.25 113.89 0 158.775-1.69 1.843-3.652 3.806-6.204 6.353l-62.686 62.69c-43.524 43.524-109.257 55.974-165.679 31.377-32.303-14.080-69.935-6.955-94.852 17.963l-102.263 102.263c-24.917 24.917-32.043 62.548-17.963 94.851 24.593 56.425 12.147 122.154-31.377 165.679l-62.691 62.691c-2.548 2.549-4.512 4.513-6.35 6.202zM891.499 804.196c12.497 12.497 12.497 32.758 0 45.255s-32.759 12.497-45.252 0l-67.883-67.882-67.883 67.882c-12.497 12.497-32.759 12.497-45.257 0s-12.497-32.758 0-45.255l67.883-67.882-67.883-67.882c-12.497-12.497-12.497-32.758 0-45.255s32.759-12.497 45.257 0l67.883 67.882 67.883-67.882c12.493-12.497 32.755-12.497 45.252 0s12.497 32.758 0 45.255l-67.883 67.882 67.883 67.882z" />
<glyph unicode="&#xe92a;" glyph-name="Call-Silent" d="M346.105 833.065c-44.889 41.247-113.888 41.247-158.777 0-1.839-1.689-3.801-3.652-6.349-6.201l-38.293-38.293c-38.533-38.533-54.708-94.082-42.887-147.278 29.040-130.679 89.694-248.964 173.64-346.534l-154.795-154.799c-12.497-12.497-12.497-32.755 0-45.252s32.758-12.497 45.255 0l682.664 682.665c12.497 12.497 12.497 32.758 0 45.255s-32.759 12.497-45.257 0l-327.902-327.903-8.917 8.917c-24.917 24.917-32.043 62.548-17.963 94.851 24.593 56.425 12.147 122.154-31.377 165.679l-62.691 62.691c-2.548 2.549-4.512 4.513-6.35 6.202zM704.401 36.689c-129.003 28.668-245.926 88.141-342.768 170.419l199.694 199.693 5.423-5.423c24.917-24.917 62.549-32.043 94.852-17.963 56.422 24.597 122.155 12.147 165.679-31.377l62.686-62.69c2.551-2.547 4.514-4.51 6.204-6.353 41.25-44.885 41.25-113.886 0-158.775-1.69-1.839-3.652-3.802-6.204-6.353l-38.289-38.289c-38.532-38.532-94.080-54.707-147.277-42.889z" />
<glyph unicode="&#xe92b;" glyph-name="Call" d="M346.105 833.065c-44.889 41.247-113.888 41.247-158.777 0-1.839-1.689-3.801-3.652-6.349-6.201l-38.293-38.293c-38.533-38.533-54.708-94.082-42.887-147.278 67.071-301.82 302.784-537.532 604.603-604.604 53.197-11.819 108.745 4.356 147.277 42.889l38.289 38.289c2.551 2.551 4.514 4.514 6.204 6.353 41.25 44.89 41.25 113.89 0 158.775-1.69 1.843-3.652 3.806-6.204 6.353l-62.686 62.69c-43.524 43.524-109.257 55.974-165.679 31.377-32.303-14.080-69.935-6.955-94.852 17.963l-102.263 102.263c-24.917 24.917-32.043 62.548-17.963 94.851 24.593 56.425 12.147 122.154-31.377 165.679l-62.691 62.691c-2.548 2.549-4.512 4.513-6.35 6.202z" />
<glyph unicode="&#xe92c;" glyph-name="Calling-1" d="M554.244 842.667c36.727 0 52.983-0.032 66.389-1.233 149.047-13.344 267.174-131.468 280.516-280.516 1.203-13.406 1.233-29.663 1.233-66.39v-42.24c0-17.673 14.327-32 32-32s32 14.327 32 32v44.39c0 34.001 0 53.323-1.489 69.947-16.102 179.885-158.665 322.448-338.551 338.554-16.627 1.488-35.947 1.488-69.952 1.487h-44.386c-17.673 0-32-14.327-32-32s14.327-32 32-32h42.24zM303.438 788.254c-44.889 41.247-113.888 41.247-158.777 0-1.838-1.689-3.801-3.652-6.349-6.201l-38.294-38.293c-38.533-38.533-54.708-94.082-42.887-147.278 67.071-301.818 302.784-537.53 604.603-604.602 53.197-11.823 108.745 4.352 147.277 42.889l38.289 38.289c2.551 2.547 4.514 4.514 6.204 6.353 41.25 44.89 41.25 113.886 0 158.775-1.69 1.839-3.652 3.802-6.204 6.353l-62.686 62.69c-43.524 43.524-109.257 55.97-165.679 31.373-32.303-14.080-69.935-6.95-94.852 17.967l-102.264 102.263c-24.917 24.917-32.044 62.545-17.963 94.849 24.594 56.425 12.148 122.154-31.377 165.679l-62.691 62.692c-2.549 2.549-4.512 4.512-6.35 6.202zM542.17 755.817c-17.673 0-32-14.327-32-32s14.327-32 32-32h24.137c3.721 0 5.244-0.001 6.485-0.019 98.116-1.405 177.314-80.603 178.718-178.719 0.017-1.237 0.021-2.765 0.021-6.485v-24.137c0-17.673 14.323-32 32-32 17.673 0 32 14.327 32 32v24.448c0 3.315 0 5.333-0.026 7.091-1.903 132.745-109.052 239.894-241.796 241.795-1.762 0.025-3.78 0.025-7.095 0.025h-24.444z" />
<glyph unicode="&#xe92d;" glyph-name="Calling-2" d="M346.105 833.065c-44.889 41.247-113.888 41.247-158.777 0-1.839-1.689-3.801-3.652-6.349-6.201l-38.293-38.293c-38.533-38.533-54.708-94.082-42.887-147.278 67.071-301.82 302.784-537.532 604.603-604.604 53.197-11.819 108.745 4.356 147.277 42.889l38.289 38.289c2.551 2.551 4.514 4.514 6.204 6.353 41.25 44.89 41.25 113.89 0 158.775-1.69 1.843-3.652 3.806-6.204 6.353l-62.686 62.69c-43.524 43.524-109.257 55.974-165.679 31.377-32.303-14.080-69.935-6.955-94.852 17.963l-102.263 102.263c-24.917 24.917-32.043 62.548-17.963 94.851 24.593 56.425 12.147 122.154-31.377 165.679l-62.691 62.691c-2.548 2.549-4.512 4.513-6.35 6.202zM608.973 736.628c3.721 0 5.244 0 6.485-0.018 98.116-1.405 177.314-80.603 178.718-178.718 0.017-1.241 0.021-2.764 0.021-6.487v-24.134c0-17.677 14.323-32 32-32 17.673 0 32 14.323 32 32v24.444c0 3.316 0 5.333-0.026 7.093-1.903 132.744-109.052 239.894-241.796 241.795-1.762 0.025-3.776 0.025-7.095 0.025h-24.444c-17.673 0-32-14.327-32-32s14.327-32 32-32h24.137z" />
<glyph unicode="&#xe92e;" glyph-name="Camera-1" d="M512 543.991c-76.582 0-138.667-62.084-138.667-138.667s62.084-138.667 138.667-138.667c76.582 0 138.667 62.084 138.667 138.667s-62.084 138.667-138.667 138.667zM667.738 864.371c-88.815 78.949-222.66 78.949-311.477 0l-9.206-8.183c-25.265-22.458-57.894-34.863-91.698-34.863-111.575 0-202.024-90.449-202.024-202.024v-215.905c0-78.362 0-139.785 5.279-188.514 5.388-49.732 16.58-90.022 41.575-124.429 15.132-20.826 33.448-39.142 54.276-54.272 34.403-24.998 74.697-36.19 124.426-41.579 48.73-5.278 110.152-5.278 188.511-5.278h89.199c78.357 0 139.78 0 188.51 5.278 49.732 5.389 90.022 16.58 124.429 41.579 20.826 15.13 39.142 33.446 54.272 54.272 24.998 34.406 36.19 74.697 41.579 124.429 5.278 48.73 5.278 110.153 5.278 188.51v215.91c0 111.575-90.449 202.024-202.022 202.024-33.805 0-66.432 12.405-91.699 34.863l-9.207 8.183zM309.333 405.325c0 111.932 90.737 202.667 202.667 202.667 111.932 0 202.667-90.735 202.667-202.667s-90.735-202.667-202.667-202.667c-111.93 0-202.667 90.735-202.667 202.667zM768 575.99c-23.565 0-42.667 19.102-42.667 42.667s19.102 42.667 42.667 42.667c23.565 0 42.667-19.103 42.667-42.667s-19.102-42.667-42.667-42.667z" />
<glyph unicode="&#xe92f;" glyph-name="Camera-2" d="M512 565.333c-76.582 0-138.667-62.084-138.667-138.667s62.084-138.667 138.667-138.667c76.582 0 138.667 62.084 138.667 138.667s-62.084 138.667-138.667 138.667zM394.667 949.333c-58.91 0-106.667-47.756-106.667-106.667v-7.619c0-19.356-15.692-35.048-35.048-35.048-110.246 0-199.619-89.373-199.619-199.619v-196.729c0-68.407 0-122.039 4.073-164.885 4.152-43.669 12.762-79.428 32.079-110.955 20.229-33.011 47.984-60.766 80.995-80.994 31.523-19.315 67.282-27.925 110.954-32.077 42.845-4.075 96.474-4.075 164.885-4.075h131.362c68.407 0 122.039 0 164.885 4.075 43.669 4.151 79.428 12.762 110.955 32.077 33.011 20.228 60.766 47.983 80.994 80.994 19.315 31.526 27.925 67.285 32.077 110.955 4.075 42.846 4.075 96.474 4.075 164.885v196.729c0 110.246-89.374 199.619-199.62 199.619-19.354 0-35.046 15.692-35.046 35.048v7.619c0 58.91-47.757 106.667-106.667 106.667h-234.667zM309.333 426.667c0 111.93 90.737 202.667 202.667 202.667 111.932 0 202.667-90.737 202.667-202.667 0-111.932-90.735-202.667-202.667-202.667-111.93 0-202.667 90.735-202.667 202.667zM768 554.667c-23.565 0-42.667 19.103-42.667 42.667s19.102 42.667 42.667 42.667c23.565 0 42.667-19.103 42.667-42.667s-19.102-42.667-42.667-42.667z" />
<glyph unicode="&#xe930;" glyph-name="Camera-Slash-1" d="M667.738 864.371c-88.815 78.949-222.66 78.949-311.477 0l-9.206-8.183c-25.265-22.458-57.894-34.863-91.698-34.863-111.575 0-202.024-90.449-202.024-202.024v-215.905c0-78.362 0-139.785 5.279-188.514 5.388-49.732 16.58-90.022 41.575-124.429 2.139-2.94 4.341-5.837 6.605-8.678l-44.087-44.083c-12.497-12.497-12.497-32.759 0-45.257s32.758-12.497 45.255 0l853.332 853.333c12.497 12.497 12.497 32.758 0 45.255s-32.755 12.497-45.252 0l-80.9-80.898c-20.821 7.256-43.2 11.2-66.496 11.2-33.805 0-66.432 12.405-91.699 34.863l-9.207 8.183zM608.567 583.551c-28.71 15.587-61.602 24.441-96.567 24.441-111.93 0-202.667-90.735-202.667-202.667 0-34.961 8.853-67.857 24.441-96.567l48.22 48.222c-5.6 15.053-8.661 31.343-8.661 48.346 0 76.582 62.084 138.667 138.667 138.667 17.003 0 33.293-3.060 48.346-8.661l48.222 48.22zM278.89-5.397c-25.484 2.761-48.489 7.049-69.495 13.935l214.313 214.31c26.689-12.937 56.641-20.19 88.291-20.19 111.932 0 202.667 90.735 202.667 202.667 0 31.65-7.253 61.602-20.19 88.29l83.558 83.561c15.505 3.738 27.708 15.941 31.445 31.444l125.444 125.446c22.541-32.594 35.742-72.138 35.742-114.765v-215.91c0-78.357 0-139.78-5.278-188.51-5.389-49.732-16.58-90.022-41.579-124.429-15.13-20.826-33.446-39.142-54.272-54.272-34.406-24.998-74.697-36.19-124.429-41.579-48.73-5.278-110.153-5.278-188.51-5.278h-89.199c-78.359 0-139.781 0-188.511 5.278zM512 266.658c-13.521 0-26.586 1.933-38.942 5.542l172.066 172.066c3.61-12.356 5.542-25.421 5.542-38.942 0-76.582-62.084-138.667-138.667-138.667z" />
<glyph unicode="&#xe931;" glyph-name="Camera-Slash-2" d="M394.667 906.667c-58.91 0-106.667-47.756-106.667-106.667v-7.619c0-19.356-15.692-35.048-35.048-35.048-110.246 0-199.619-89.373-199.619-199.619v-196.729c0-68.407 0-122.039 4.073-164.885 4.152-43.669 12.762-79.428 32.079-110.955 5.82-9.498 12.263-18.56 19.274-27.132l-46.054-46.054c-12.497-12.497-12.497-32.755 0-45.252s32.758-12.497 45.255 0l853.332 853.332c12.497 12.497 12.497 32.758 0 45.255s-32.755 12.497-45.252 0l-110.869-110.866c-11.089 1.91-22.49 2.906-34.125 2.906-19.354 0-35.046 15.692-35.046 35.048v7.619c0 58.91-47.757 106.667-106.667 106.667h-234.667zM611.401 560.657c-29.367 16.561-63.279 26.010-99.401 26.010-111.93 0-202.667-90.735-202.667-202.667 0-36.122 9.449-70.033 26.010-99.401l47.878 47.876c-6.379 15.927-9.888 33.318-9.888 51.524 0 76.582 62.084 138.667 138.667 138.667 18.206 0 35.597-3.507 51.524-9.886l47.876 47.876zM281.434-27.925c-25.672 2.441-48.609 6.421-69.559 13.21l214.822 214.822c25.929-12.049 54.831-18.773 85.303-18.773 111.932 0 202.667 90.735 202.667 202.667 0 30.473-6.724 59.375-18.773 85.303l49.297 49.297c6.596-4.181 14.421-6.601 22.81-6.601 23.565 0 42.667 19.102 42.667 42.667 0 8.389-2.419 16.212-6.601 22.81l114.607 114.608c32.299-35.467 51.994-82.618 51.994-134.37v-196.729c0-68.412 0-122.039-4.075-164.885-4.151-43.669-12.762-79.428-32.077-110.955-20.228-33.011-47.983-60.766-80.994-80.994-31.526-19.315-67.285-27.925-110.955-32.077-42.846-4.075-96.478-4.075-164.885-4.075h-131.362c-68.411 0-122.040 0-164.885 4.075zM512 245.333c-12.267 0-24.166 1.591-35.494 4.582l169.579 169.579c2.991-11.328 4.582-23.228 4.582-35.494 0-76.582-62.084-138.667-138.667-138.667z" />
<glyph unicode="&#xe932;" glyph-name="Card-1" d="M556.1 821.333c58.526 0 104.41 0 141.291-3.013 37.551-3.068 68.574-9.42 96.653-23.727 46.165-23.521 83.695-61.052 107.217-107.215 17.156-33.673 23.083-72.225 25.31-122.046h-829.14c2.226 49.821 8.151 88.372 25.309 122.046 23.521 46.162 61.052 83.694 107.215 107.215 28.081 14.307 59.104 20.659 96.657 23.727 36.879 3.013 82.764 3.013 141.289 3.013h88.201zM96.097 501.333c-0.097-16.388-0.097-34.048-0.097-53.086v-1.681c0-58.526 0-104.41 3.013-141.291 3.068-37.551 9.42-68.574 23.727-96.653 23.521-46.165 61.052-83.695 107.215-107.217 28.081-14.306 59.104-20.659 96.657-23.727 36.877-3.012 82.759-3.012 141.28-3.012h88.209c58.522 0 104.414 0 141.291 3.012 37.551 3.068 68.574 9.421 96.653 23.727 46.165 23.522 83.695 61.052 107.217 107.217 14.306 28.079 20.659 59.102 23.727 96.653 3.012 36.877 3.012 82.761 3.012 141.282v1.69c0 19.038 0 36.698-0.098 53.086h-831.805zM522.667 234.667c0 17.673 14.327 32 32 32h170.667c17.673 0 32-14.327 32-32s-14.327-32-32-32h-170.667c-17.673 0-32 14.327-32 32z" />
<glyph unicode="&#xe933;" glyph-name="Card-2" d="M598.767 821.333c58.526 0 104.41 0 141.291-3.013 37.551-3.068 68.574-9.42 96.653-23.727 46.165-23.521 83.695-61.052 107.217-107.215 17.156-33.673 23.083-72.225 25.31-122.046h-914.473c2.226 49.821 8.151 88.372 25.309 122.046 23.521 46.162 61.052 83.694 107.215 107.215 28.081 14.307 59.104 20.659 96.657 23.727 36.879 3.013 82.764 3.013 141.291 3.013h173.532zM53.43 501.333c-0.097-16.388-0.097-34.048-0.097-53.086v-1.681c0-58.526 0-104.41 3.013-141.291 3.068-37.551 9.42-68.574 23.727-96.653 23.521-46.165 61.052-83.695 107.215-107.217 28.081-14.306 59.104-20.659 96.657-23.727 36.877-3.012 82.759-3.012 141.282-3.012h173.541c58.522 0 104.414 0 141.291 3.012 37.551 3.068 68.574 9.421 96.653 23.727 46.165 23.522 83.695 61.052 107.217 107.217 14.306 28.079 20.659 59.102 23.727 96.653 3.012 36.877 3.012 82.761 3.012 141.282v1.69c0 19.038 0 36.698-0.098 53.086h-917.138zM224 234.667c0 17.673 14.327 32 32 32h85.333c17.673 0 32-14.327 32-32s-14.327-32-32-32h-85.333c-17.673 0-32 14.327-32 32zM437.333 234.667c0 17.673 14.327 32 32 32h170.667c17.673 0 32-14.327 32-32s-14.327-32-32-32h-170.667c-17.673 0-32 14.327-32 32z" />
<glyph unicode="&#xe934;" glyph-name="Category" d="M170.667 661.333c0 39.76 0 59.64 6.496 75.322 8.661 20.909 25.273 37.521 46.182 46.182 15.682 6.496 35.562 6.496 75.322 6.496s59.64 0 75.322-6.496c20.909-8.661 37.521-25.273 46.182-46.182 6.496-15.682 6.496-35.562 6.496-75.322s0-59.64-6.496-75.322c-8.661-20.909-25.273-37.521-46.182-46.182-15.682-6.496-35.562-6.496-75.322-6.496s-59.64 0-75.322 6.496c-20.909 8.661-37.521 25.273-46.182 46.182-6.496 15.682-6.496 35.562-6.496 75.322zM597.333 661.333c0 39.76 0 59.64 6.494 75.322 8.661 20.909 25.276 37.521 46.182 46.182 15.684 6.496 35.563 6.496 75.324 6.496s59.639 0 75.324-6.496c20.907-8.661 37.521-25.273 46.182-46.182 6.494-15.682 6.494-35.562 6.494-75.322s0-59.64-6.494-75.322c-8.661-20.909-25.276-37.521-46.182-46.182-15.684-6.496-35.563-6.496-75.324-6.496s-59.639 0-75.324 6.496c-20.907 8.661-37.521 25.273-46.182 46.182-6.494 15.682-6.494 35.562-6.494 75.322zM170.667 234.667c0 39.761 0 59.639 6.496 75.324 8.661 20.907 25.273 37.521 46.182 46.182 15.682 6.494 35.562 6.494 75.322 6.494s59.64 0 75.322-6.494c20.909-8.661 37.521-25.276 46.182-46.182 6.496-15.684 6.496-35.563 6.496-75.324s0-59.639-6.496-75.324c-8.661-20.907-25.273-37.521-46.182-46.182-15.682-6.494-35.562-6.494-75.322-6.494s-59.64 0-75.322 6.494c-20.909 8.661-37.521 25.276-46.182 46.182-6.496 15.684-6.496 35.563-6.496 75.324zM597.333 234.667c0 39.761 0 59.639 6.494 75.324 8.661 20.907 25.276 37.521 46.182 46.182 15.684 6.494 35.563 6.494 75.324 6.494s59.639 0 75.324-6.494c20.907-8.661 37.521-25.276 46.182-46.182 6.494-15.684 6.494-35.563 6.494-75.324s0-59.639-6.494-75.324c-8.661-20.907-25.276-37.521-46.182-46.182-15.684-6.494-35.563-6.494-75.324-6.494s-59.639 0-75.324 6.494c-20.907 8.661-37.521 25.276-46.182 46.182-6.494 15.684-6.494 35.563-6.494 75.324z" />
<glyph unicode="&#xe935;" glyph-name="Chart" d="M513.933 864c78.357 0 139.78 0 188.51-5.279 49.732-5.388 90.022-16.58 124.429-41.575 20.826-15.132 39.142-33.448 54.272-54.276 24.998-34.403 36.19-74.697 41.579-124.426 5.278-48.73 5.278-110.153 5.278-188.511v-3.866c0-78.357 0-139.78-5.278-188.51-5.389-49.732-16.58-90.022-41.579-124.429-15.13-20.826-33.446-39.142-54.272-54.272-34.406-24.998-74.697-36.19-124.429-41.579-48.73-5.278-110.153-5.278-188.51-5.278h-3.866c-78.357 0-139.781 0-188.511 5.278-49.73 5.389-90.023 16.58-124.426 41.579-20.828 15.13-39.144 33.446-54.276 54.272-24.995 34.406-36.187 74.697-41.575 124.429-5.28 48.73-5.28 110.153-5.279 188.51v3.861c0 78.362 0 139.784 5.279 188.515 5.388 49.73 16.58 90.023 41.575 124.426 15.132 20.828 33.448 39.144 54.276 54.276 34.403 24.995 74.697 36.187 124.426 41.575 48.731 5.28 110.153 5.28 188.511 5.279h3.866zM544 661.333c0 17.673-14.327 32-32 32s-32-14.327-32-32v-426.667c0-17.673 14.327-32 32-32s32 14.327 32 32v426.667zM714.667 490.667c0 17.673-14.327 32-32 32s-32-14.327-32-32v-256c0-17.673 14.327-32 32-32s32 14.327 32 32v256zM373.333 405.333c0 17.673-14.327 32-32 32s-32-14.327-32-32v-170.667c0-17.673 14.327-32 32-32s32 14.327 32 32v170.667z" />
<glyph unicode="&#xe936;" glyph-name="Close-Circle" d="M512 21.333c235.639 0 426.667 191.027 426.667 426.667 0 235.642-191.027 426.667-426.667 426.667-235.642 0-426.667-191.025-426.667-426.667 0-235.639 191.025-426.667 426.667-426.667zM625.135 505.532c12.497 12.493 12.497 32.756 0 45.253s-32.755 12.497-45.252 0l-67.883-67.883-67.883 67.883c-12.497 12.497-32.758 12.497-45.255 0s-12.497-32.76 0-45.257l67.881-67.878-67.881-67.883c-12.497-12.497-12.497-32.759 0-45.257s32.758-12.497 45.255 0l67.883 67.883 67.883-67.883c12.497-12.497 32.755-12.497 45.252 0s12.497 32.759 0 45.257l-67.883 67.883 67.883 67.883z" />
<glyph unicode="&#xe937;" glyph-name="Close-Square" d="M168.743 744.061c-40.743-56.078-40.743-136.073-40.743-296.061 0-159.987 0-239.983 40.743-296.060 13.158-18.112 29.085-34.039 47.196-47.198 56.078-40.742 136.073-40.742 296.061-40.742 159.987 0 239.983 0 296.060 40.742 18.112 13.158 34.039 29.086 47.198 47.198 40.742 56.077 40.742 136.073 40.742 296.060s0 239.983-40.742 296.061c-13.158 18.111-29.086 34.038-47.198 47.196-56.077 40.743-136.073 40.743-296.060 40.743s-239.983 0-296.061-40.743c-18.111-13.158-34.038-29.085-47.196-47.196zM444.117 550.784c-12.497 12.497-32.758 12.497-45.255 0s-12.497-32.76 0-45.257l67.881-67.878-67.881-67.883c-12.497-12.497-12.497-32.759 0-45.257s32.758-12.497 45.255 0l67.883 67.883 67.883-67.883c12.497-12.497 32.755-12.497 45.252 0s12.497 32.759 0 45.257l-67.883 67.883 67.883 67.878c12.497 12.497 12.497 32.76 0 45.257s-32.755 12.497-45.252 0l-67.883-67.883-67.883 67.883z" />
<glyph unicode="&#xe938;" glyph-name="Close" d="M833.297 724.039c12.493 12.497 12.493 32.758 0 45.255-12.497 12.497-32.759 12.497-45.257 0l-276.041-276.042-276.039 276.042c-12.497 12.497-32.758 12.497-45.255 0s-12.497-32.758 0-45.255l276.042-276.039-276.041-276.041c-12.497-12.497-12.497-32.755 0-45.252s32.758-12.497 45.255 0l276.038 276.036 276.041-276.036c12.497-12.497 32.755-12.497 45.252 0s12.497 32.755 0 45.252l-276.036 276.041 276.041 276.039z" />
<glyph unicode="&#xe939;" glyph-name="Color-Picker" d="M653.385 859.529c13.257-4.313 25.638-10.953 36.565-19.61 22.046-17.469 32.589-42.382 39.334-70.084 6.554-26.917 10.705-61.947 15.774-104.738l2.342-19.782c3.115-26.275 4.228-33.204 6.75-39.188 0.815-1.933 1.741-3.816 2.778-5.64 3.209-5.645 8.021-10.751 26.957-29.232l34.321-33.499c33.527-32.724 44.075-82.409 26.726-125.934-26.172-65.668-104.499-92.843-165.722-57.498l-80.9 46.707-105.323-197.815c-5.478-10.291-8.853-16.631-12.621-22.801-6.891-11.29-14.686-22.003-23.305-32.034-4.71-5.483-9.702-10.645-17.805-19.029l-1.455-1.502c-38.351-39.663-68.062-70.391-91.146-91.87-11.651-10.837-22.336-20.011-32.172-27.038-9.515-6.801-20.26-13.094-31.928-15.996-61.28-15.236-123.626 20.762-141.073 81.446-3.322 11.558-3.244 24.009-2.112 35.648 1.171 12.032 3.77 25.873 7.332 41.382 7.058 30.733 18.813 71.825 33.988 124.873l0.575 2.010c3.206 11.209 5.182 18.112 7.575 24.934 4.379 12.48 9.76 24.585 16.090 36.198 3.46 6.349 7.264 12.442 13.437 22.332l118.649 190.119-80.893 46.704c-61.22 35.345-76.849 116.77-33.065 172.269 29.019 36.783 77.319 52.494 122.424 39.82l42.793-12.024c25.892-7.275 32.846-8.92 39.405-8.855 3.106 0.031 6.204 0.333 9.254 0.902 6.443 1.202 13.030 4.201 37.265 16.458l1.877 0.951c38.852 19.654 70.609 35.718 96.836 45.247 26.935 9.785 53.658 14.888 80.469 6.167zM542.852 433.050l-150.376 86.822-119.283-191.134c-6.863-10.999-9.617-15.437-12.068-19.934-4.679-8.58-8.656-17.527-11.893-26.752-1.696-4.834-3.144-9.852-6.709-22.315-15.534-54.302-26.81-93.764-33.443-122.641-3.306-14.391-5.224-25.186-6.008-33.25-0.387-3.977-0.457-6.899-0.37-8.977 0.079-1.894 0.291-2.79 0.291-2.79 7.93-27.584 36.263-43.942 64.115-37.026 0 0 0.814 0.226 2.57 1.148 1.845 0.964 4.34 2.483 7.591 4.809 6.592 4.71 14.979 11.767 25.792 21.828 21.691 20.181 50.227 49.677 89.488 90.283 9.011 9.318 12.631 13.082 15.969 16.969 6.37 7.415 12.131 15.33 17.224 23.676 2.669 4.373 5.135 8.973 11.228 20.416l105.882 198.869z" />
<glyph unicode="&#xe93a;" glyph-name="Crop-1" d="M162.917 525.577v216.39c24.607 10.751 44.373 30.518 55.124 55.124h216.391c176.388 0 275.43 0 339.277-42.143l121.011 121.012c12.497 12.497 32.755 12.497 45.252 0s12.497-32.758 0-45.255l-121.011-121.014c42.138-63.844 42.138-162.887 42.138-339.269v-216.393c-24.606-10.748-44.373-30.515-55.125-55.121h-216.388c-176.383 0-275.426 0-339.27 42.138l568.646 568.645c-5.914 8.96-12.659 17.225-20.348 24.915-7.684 7.688-15.949 14.429-24.905 20.341l-568.649-568.649c-42.143 63.846-42.143 162.889-42.143 339.277z" />
<glyph unicode="&#xe93b;" glyph-name="Crop-2" d="M194.909 874.667c0 17.673-14.327 32-32 32s-32-14.327-32-32v-34.909c0-5.891-4.776-10.667-10.667-10.667h-34.909c-17.673 0-32-14.327-32-32s14.327-32 32-32h34.909c41.237 0 74.667 33.429 74.667 74.667v34.909zM903.757 130.91c-41.237 0-74.667-33.434-74.667-74.671l0.004-34.906c0-17.673 14.327-32 32-32s32 14.327 32 32l-0.004 34.91c0 5.888 4.779 10.667 10.667 10.667h34.91c17.673 0 32 14.327 32 32s-14.327 32-32 32h-34.91zM162.909 741.967v-216.39c0-201.135 0-301.7 62.484-364.186 62.484-62.481 163.050-62.481 364.183-62.481h216.393c10.748 24.606 30.515 44.373 55.121 55.121v216.393c0 201.133 0 301.7-62.481 364.183-62.485 62.484-163.051 62.484-364.186 62.484h-216.39c-10.751-24.607-30.518-44.373-55.124-55.124z" />
<glyph unicode="&#xe93c;" glyph-name="Crop-3" d="M194.909 874.667c0 17.673-14.327 32-32 32s-32-14.327-32-32v-34.909c0-5.891-4.776-10.667-10.667-10.667h-34.909c-17.673 0-32-14.327-32-32s14.327-32 32-32h34.909c41.237 0 74.667 33.429 74.667 74.667v34.909zM903.757 130.91c-41.237 0-74.667-33.434-74.667-74.671l0.004-34.906c0-17.673 14.327-32 32-32s32 14.327 32 32l-0.004 34.91c0 5.888 4.779 10.667 10.667 10.667h34.91c17.673 0 32 14.327 32 32s-14.327 32-32 32h-34.91zM458.671 448c0 29.457 23.876 53.333 53.333 53.333 29.453 0 53.333-23.876 53.333-53.333s-23.881-53.333-53.333-53.333c-29.457 0-53.333 23.876-53.333 53.333zM162.909 525.577v216.39c24.607 10.751 44.373 30.518 55.124 55.124h216.39c201.135 0 301.7 0 364.186-62.484 62.481-62.484 62.481-163.050 62.481-364.183v-216.393c-24.606-10.748-44.373-30.515-55.121-55.121h-216.393c-201.133 0-301.7 0-364.183 62.481-62.484 62.485-62.484 163.051-62.484 364.186zM512.004 565.333c-64.802 0-117.335-52.531-117.335-117.333s52.532-117.333 117.335-117.333c64.802 0 117.333 52.531 117.333 117.333s-52.531 117.333-117.333 117.333z" />
<glyph unicode="&#xe93d;" glyph-name="Cup-of-Tea" d="M277.153 945.948c15.807 7.904 35.029 1.496 42.932-14.311l2.252-4.504c16.516-33.033 16.516-71.914 0-104.946l-2.252-4.504c-7.904-15.808-27.125-22.215-42.932-14.311s-22.215 27.125-14.311 42.932l2.252 4.504c7.508 15.015 7.508 32.688 0 47.703l-2.252 4.505c-7.904 15.807-1.497 35.029 14.311 42.932zM618.487 945.948c15.808 7.904 35.029 1.496 42.931-14.311l2.253-4.504c16.516-33.033 16.516-71.913 0-104.946l-2.253-4.505c-7.902-15.807-27.127-22.214-42.931-14.31-15.808 7.904-22.217 27.125-14.31 42.932l2.249 4.504c7.509 15.015 7.509 32.688 0 47.703l-2.249 4.505c-7.906 15.807-1.498 35.029 14.31 42.932zM476.442 945.948c15.808-7.904 22.212-27.125 14.31-42.933l-2.253-4.504c-7.505-15.015-7.505-32.688 0-47.703l2.253-4.504c7.902-15.808 1.498-35.029-14.31-42.932s-35.029-1.497-42.931 14.311l-2.253 4.504c-16.518 33.033-16.518 71.913 0 104.946l2.253 4.504c7.902 15.807 27.123 22.214 42.931 14.311zM469.397 778.66c74.837 0.012 120.316 0.019 156.719-11.581 89.536-28.531 154.91-105.7 168.333-198.709 2.219-15.368 2.304-31.43 0.934-49.458 71.74-15.808 125.414-79.761 125.414-156.254 0-88.363-71.637-160-160-160-5.201 0-10.351 0.252-15.437 0.738l-3.695-22.161c-4.642-27.883-7.484-44.919-11.972-59.861-27.895-92.8-107.797-160.486-203.917-172.745-15.479-1.971-32.747-1.971-61.013-1.971h-5.261c-28.267 0-45.542 0-61.018 1.971-96.122 12.258-176.024 79.945-203.917 172.745-4.492 14.942-7.33 31.979-11.976 59.866l-38.44 230.639c-12.315 73.818-19.799 118.677-14.341 156.492 13.423 93.009 78.796 170.178 168.332 198.709 13.296 4.237 27.408 6.862 43.165 8.522v-199.608h-10.667c-23.564 0-42.667-19.102-42.667-42.668v-85.333c0-23.565 19.103-42.667 42.667-42.667h85.333c23.565 0 42.667 19.102 42.667 42.667v85.333c0 23.566-19.102 42.668-42.667 42.668h-10.667v202.483c16.559 0.184 35.183 0.184 56.244 0.184h7.846zM755.925 266.782c1.613-0.081 3.238-0.124 4.873-0.124 53.018 0 96 42.982 96 96 0 43.878-29.436 80.879-69.632 92.335-2.355-14.891-5.103-31.398-8.171-49.796l-23.070-138.415z" />
<glyph unicode="&#xe93e;" glyph-name="Cup" d="M422.884 863.999h14.535c74.837 0.012 120.316 0.019 156.719-11.581 89.536-28.531 154.91-105.7 168.333-198.709 2.155-14.935 2.291-30.97 0.909-49.453 71.753-15.799 125.44-79.759 125.44-156.256 0-88.367-71.637-160-160-160-5.205 0-10.351 0.247-15.437 0.734l-3.695-22.157c-4.642-27.887-7.484-44.924-11.972-59.866-27.895-92.8-107.797-160.486-203.917-172.74-15.479-1.975-32.747-1.975-61.013-1.971h-5.261c-28.269-0.004-45.543-0.004-61.019 1.971-96.122 12.254-176.024 79.94-203.917 172.74-4.492 14.942-7.33 31.979-11.976 59.866l-38.441 230.639c-12.314 73.818-19.798 118.678-14.341 156.493 13.423 93.009 78.795 170.178 168.332 198.709 36.404 11.6 81.883 11.593 156.721 11.581zM723.947 352.119c1.613-0.081 3.234-0.119 4.873-0.119 53.018 0 96 42.978 96 96 0 43.866-29.423 80.858-69.611 92.325-2.091-13.204-4.476-27.493-7.074-43.075l-24.188-145.131zM290.998 538.889c-3.069 17.405-19.666 29.026-37.071 25.957s-29.026-19.666-25.957-37.072l44.454-252.109c3.069-17.404 19.666-29.026 37.071-25.958s29.026 19.665 25.957 37.073l-44.454 252.109z" />
<glyph unicode="&#xe93f;" glyph-name="Danger-Circle" d="M938.667 448c0-235.639-191.027-426.667-426.667-426.667-235.642 0-426.667 191.027-426.667 426.667 0 235.642 191.025 426.667 426.667 426.667 235.639 0 426.667-191.025 426.667-426.667zM512 693.333c17.673 0 32-14.327 32-32v-256c0-17.673-14.327-32-32-32s-32 14.327-32 32v256c0 17.673 14.327 32 32 32zM512 234.667c23.565 0 42.667 19.102 42.667 42.667s-19.102 42.667-42.667 42.667c-23.565 0-42.667-19.102-42.667-42.667s19.102-42.667 42.667-42.667z" />
<glyph unicode="&#xe940;" glyph-name="Danger-Triangle" d="M216.399 576c97.006 168.020 145.509 252.029 208.833 280.223 55.233 24.591 118.307 24.591 173.539 0 63.326-28.194 111.829-112.204 208.836-280.223 97.003-168.021 145.506-252.028 138.261-320.964-6.319-60.13-37.854-114.756-86.771-150.293-56.077-40.742-153.084-40.742-347.093-40.742-194.014 0-291.020 0-347.098 40.742-48.913 35.537-80.451 90.163-86.77 150.293-7.246 68.937 41.257 152.943 138.264 320.964zM512 693.333c17.673 0 32-14.327 32-32v-256c0-17.673-14.327-32-32-32s-32 14.327-32 32v256c0 17.673 14.327 32 32 32zM512 234.667c23.565 0 42.667 19.102 42.667 42.667s-19.102 42.667-42.667 42.667c-23.565 0-42.667-19.102-42.667-42.667s19.102-42.667 42.667-42.667z" />
<glyph unicode="&#xe941;" glyph-name="Delete-1" d="M512 906.667c-111.93 0-202.667-90.737-202.667-202.667v-10.667h-138.667c-17.673 0-32-14.327-32-32s14.327-32 32-32h682.667c17.673 0 32 14.327 32 32s-14.327 32-32 32h-138.667v10.667c0 111.93-90.735 202.667-202.667 202.667zM790.067 414.741l-11.191-80.427c-12.169-87.411-18.249-131.119-31.147-166.221-24.115-65.643-65.805-114.534-115.563-135.531-26.611-11.23-57.796-11.23-120.166-11.23s-93.556 0-120.164 11.23c-49.759 20.996-91.448 69.888-115.566 135.531-12.897 35.102-18.979 78.805-31.144 166.221l-11.193 80.427c-3.445 24.755-6.591 47.36-9.391 68.122-5.751 42.645-8.626 63.967 4.124 78.552s34.665 14.585 78.493 14.585h409.684c43.827 0 65.741 0 78.49-14.585 12.753-14.585 9.877-35.907 4.126-78.552-2.799-20.753-5.948-43.375-9.391-68.122z" />
<glyph unicode="&#xe942;" glyph-name="Delete-2" d="M778.876 334.315c-12.164-87.411-18.249-131.119-31.147-166.221-24.115-65.643-65.805-114.534-115.563-135.531-26.611-11.23-57.796-11.23-120.166-11.23s-93.555 0-120.164 11.23c-49.759 20.996-91.448 69.888-115.566 135.531-12.897 35.102-18.979 78.81-31.144 166.221l-11.193 80.427c-3.445 24.755-6.591 47.36-9.391 68.122-5.751 42.645-8.626 63.967 4.124 78.552s34.664 14.585 78.493 14.585h409.683c43.827 0 65.741 0 78.49-14.585 12.753-14.585 9.877-35.907 4.126-78.552-2.799-20.753-5.948-43.375-9.391-68.122l-11.191-80.427zM458.667 490.667c0 17.673-14.327 32-32 32s-32-14.327-32-32v-341.333c0-17.673 14.327-32 32-32s32 14.327 32 32v341.333zM629.333 490.667c0 17.673-14.327 32-32 32s-32-14.327-32-32v-341.333c0-17.673 14.327-32 32-32s32 14.327 32 32v341.333zM512 906.667c-111.93 0-202.667-90.737-202.667-202.667v-10.667h-138.667c-17.673 0-32-14.327-32-32s14.327-32 32-32h682.667c17.673 0 32 14.327 32 32s-14.327 32-32 32h-138.667v10.667c0 111.93-90.735 202.667-202.667 202.667z" />
<glyph unicode="&#xe943;" glyph-name="Discount-Circle" d="M53.333 448c0 253.315 205.352 458.667 458.667 458.667s458.667-205.352 458.667-458.667c0-253.316-205.35-458.667-458.667-458.667-253.315 0-458.667 205.35-458.667 458.667zM647.987 583.987c12.497-12.497 12.497-32.758 0-45.255l-241.36-241.358c-12.497-12.497-32.758-12.497-45.255 0s-12.497 32.755 0 45.252l241.358 241.361c12.497 12.497 32.759 12.497 45.257 0zM384 533.333c-23.564 0-42.667 19.103-42.667 42.667s19.103 42.667 42.667 42.667c23.564 0 42.667-19.103 42.667-42.667s-19.103-42.667-42.667-42.667zM640 277.333c-23.565 0-42.667 19.102-42.667 42.667s19.102 42.667 42.667 42.667c23.565 0 42.667-19.102 42.667-42.667s-19.102-42.667-42.667-42.667z" />
<glyph unicode="&#xe944;" glyph-name="Discount-Shape-1" d="M359.92 842.375c43.664 153 260.492 153 304.157 0 13.943-48.86 64.141-77.842 113.429-65.488 154.334 38.686 262.75-149.095 152.081-263.407-35.345-36.506-35.345-94.473 0-130.978 110.669-114.313 2.253-302.093-152.081-263.407-49.289 12.352-99.486-16.627-113.429-65.489-43.665-152.998-260.493-152.998-304.157 0-13.944 48.862-64.142 77.841-113.428 65.489-154.333-38.686-262.748 149.094-152.079 263.407 35.342 36.506 35.342 94.473 0 130.978-110.669 114.312-2.255 302.093 152.079 263.407 49.286-12.354 99.484 16.628 113.428 65.488zM647.987 583.978c12.497-12.497 12.497-32.758 0-45.255l-241.36-241.358c-12.497-12.497-32.758-12.497-45.255 0s-12.497 32.755 0 45.252l241.358 241.36c12.497 12.497 32.759 12.497 45.257 0zM384 533.325c-23.564 0-42.667 19.101-42.667 42.665s19.103 42.667 42.667 42.667c23.564 0 42.667-19.103 42.667-42.667s-19.103-42.665-42.667-42.665zM640 277.325c-23.565 0-42.667 19.102-42.667 42.667 0 23.561 19.102 42.667 42.667 42.667s42.667-19.106 42.667-42.667c0-23.565-19.102-42.667-42.667-42.667z" />
<glyph unicode="&#xe945;" glyph-name="Discount-Shape-2" d="M513.498 886.458c53.073 0 95.019 0 129.348-3.067 35.26-3.151 64.755-9.681 92.629-23.98 7.223-3.704 14.255-7.764 21.073-12.166 26.321-16.99 46.72-39.267 67.081-68.23 19.823-28.196 40.798-64.524 67.332-110.484l1.498-2.601c26.539-45.96 47.514-82.288 62.020-113.551 14.903-32.115 23.991-60.919 25.549-92.211 0.401-8.107 0.401-16.226 0-24.329-1.557-31.292-10.645-60.1-25.549-92.211-14.507-31.266-35.482-67.593-62.016-113.553l-1.506-2.603c-26.534-45.956-47.505-82.287-67.328-110.481-20.361-28.962-40.759-51.238-67.081-68.228-6.818-4.403-13.85-8.465-21.073-12.169-27.874-14.298-57.365-20.83-92.629-23.979-34.33-3.068-76.275-3.068-129.344-3.068h-3.008c-53.069 0-95.017 0-129.345 3.068-35.262 3.149-64.756 9.681-92.631 23.979-7.22 3.703-14.253 7.765-21.071 12.169-26.321 16.99-46.723 39.266-67.083 68.228-19.82 28.194-40.794 64.521-67.328 110.481l-1.504 2.607c-26.534 45.956-47.509 82.287-62.016 113.549-14.903 32.111-23.994 60.919-25.548 92.211-0.402 8.102-0.402 16.222 0 24.329 1.553 31.292 10.645 60.096 25.548 92.211 14.508 31.263 35.482 67.59 62.016 113.55l1.503 2.603c26.534 45.959 47.508 82.287 67.328 110.483 20.36 28.963 40.762 51.24 67.083 68.23 6.819 4.401 13.851 8.461 21.071 12.166 27.875 14.3 57.368 20.829 92.631 23.98 34.328 3.067 76.276 3.067 129.345 3.067h3.004zM647.983 583.99c12.497-12.497 12.497-32.758 0-45.255l-241.361-241.357c-12.497-12.497-32.758-12.497-45.255 0-12.497 12.493-12.497 32.755 0 45.252l241.359 241.36c12.497 12.497 32.759 12.497 45.257 0zM384 533.338c-23.564 0-42.667 19.103-42.667 42.667s19.103 42.667 42.667 42.667c23.564 0 42.667-19.102 42.667-42.667s-19.103-42.667-42.667-42.667zM640 277.338c-23.565 0-42.667 19.102-42.667 42.667s19.102 42.667 42.667 42.667c23.565 0 42.667-19.102 42.667-42.667s-19.102-42.667-42.667-42.667z" />
<glyph unicode="&#xe946;" glyph-name="Discount-Shape-3" d="M499.831 916.032c8.107 0.402 16.226 0.402 24.329 0 31.292-1.553 60.1-10.645 92.211-25.548 31.262-14.508 67.593-35.482 113.549-62.016l2.603-1.502c45.961-26.534 82.291-47.509 110.485-67.329 28.962-20.36 51.238-40.762 68.228-67.083 4.403-6.818 8.465-13.851 12.169-21.071 14.298-27.875 20.83-57.368 23.979-92.631 3.068-34.328 3.068-76.276 3.068-129.345v-3.004c0-53.069 0-95.019-3.068-129.348-3.149-35.26-9.681-64.755-23.979-92.629-3.703-7.223-7.765-14.255-12.169-21.073-16.99-26.321-39.266-46.72-68.228-67.081-28.194-19.823-64.525-40.794-110.481-67.328l-2.603-1.506c-45.961-26.534-82.287-47.509-113.553-62.016-32.111-14.903-60.919-23.991-92.211-25.549-8.102-0.401-16.222-0.401-24.329 0-31.292 1.557-60.096 10.645-92.211 25.549-31.263 14.507-67.591 35.482-113.551 62.016l-2.605 1.506c-45.955 26.53-82.287 47.509-110.481 67.328-28.963 20.361-51.24 40.759-68.23 67.081-4.401 6.818-8.462 13.85-12.166 21.073-14.3 27.874-20.829 57.37-23.98 92.629-3.067 34.33-3.067 76.275-3.067 129.344v3.008c0 53.069 0 95.017 3.067 129.345 3.151 35.262 9.681 64.756 23.98 92.631 3.704 7.22 7.764 14.253 12.166 21.071 16.99 26.321 39.267 46.723 68.23 67.083 28.196 19.82 64.524 40.794 110.483 67.328l2.603 1.503c45.959 26.535 82.287 47.509 113.55 62.016 32.115 14.903 60.919 23.994 92.211 25.548zM647.983 583.989c12.497-12.497 12.497-32.758 0-45.255l-241.361-241.361c-12.497-12.497-32.758-12.497-45.255 0s-12.497 32.759 0 45.257l241.359 241.359c12.497 12.497 32.759 12.497 45.257 0zM384 533.338c-23.564 0-42.667 19.103-42.667 42.667s19.103 42.667 42.667 42.667c23.564 0 42.667-19.102 42.667-42.667s-19.103-42.667-42.667-42.667zM640 277.338c-23.565 0-42.667 19.102-42.667 42.667s19.102 42.667 42.667 42.667c23.565 0 42.667-19.102 42.667-42.667s-19.102-42.667-42.667-42.667z" />
<glyph unicode="&#xe947;" glyph-name="Discount-Square" d="M513.929 864c78.362 0 139.785 0 188.514-5.279 49.732-5.388 90.022-16.58 124.429-41.575 20.826-15.132 39.142-33.448 54.272-54.276 24.998-34.403 36.19-74.697 41.579-124.426 5.278-48.73 5.278-110.153 5.278-188.511v-3.866c0-78.357 0-139.78-5.278-188.51-5.389-49.732-16.58-90.022-41.579-124.429-15.13-20.826-33.446-39.142-54.272-54.272-34.406-24.998-74.697-36.19-124.429-41.579-48.73-5.278-110.153-5.278-188.51-5.278h-3.866c-78.357 0-139.781 0-188.511 5.278-49.73 5.389-90.023 16.58-124.426 41.579-20.828 15.13-39.144 33.446-54.276 54.272-24.995 34.406-36.187 74.697-41.575 124.429-5.28 48.73-5.28 110.153-5.279 188.514v3.857c0 78.362 0 139.784 5.279 188.515 5.388 49.73 16.58 90.023 41.575 124.426 15.132 20.828 33.448 39.144 54.276 54.276 34.403 24.995 74.697 36.187 124.426 41.575 48.731 5.28 110.153 5.28 188.515 5.279h3.857zM647.987 583.986c12.497-12.497 12.497-32.758 0-45.255l-241.36-241.358c-12.497-12.497-32.758-12.497-45.255 0s-12.497 32.755 0 45.252l241.358 241.36c12.497 12.497 32.759 12.497 45.257 0zM384 533.333c-23.564 0-42.667 19.103-42.667 42.667s19.103 42.667 42.667 42.667c23.564 0 42.667-19.103 42.667-42.667s-19.103-42.667-42.667-42.667zM640 277.333c-23.565 0-42.667 19.102-42.667 42.667s19.102 42.667 42.667 42.667c23.565 0 42.667-19.102 42.667-42.667s-19.102-42.667-42.667-42.667z" />
<glyph unicode="&#xe948;" glyph-name="Discovery-1" d="M600.162 550.092c8.768 3.61 17.536-5.157 13.926-13.925l-47.031-114.215c-5.414-13.15-15.855-23.59-29.009-29.009l-114.212-47.027c-8.767-3.61-17.534 5.158-13.924 13.926l47.027 114.21c5.419 13.154 15.859 23.595 29.013 29.009l114.21 47.031zM642.846 883.392c35.264-3.151 64.755-9.681 92.629-23.98 7.223-3.704 14.255-7.764 21.073-12.166 26.321-16.99 46.72-39.267 67.081-68.23 19.823-28.195 40.794-64.522 67.328-110.481l1.502-2.604c26.539-45.96 47.514-82.288 62.020-113.551 14.903-32.115 23.991-60.919 25.549-92.211 0.401-8.107 0.401-16.226 0-24.329-1.557-31.292-10.645-60.1-25.549-92.211-14.507-31.266-35.482-67.593-62.016-113.553l-1.506-2.603c-26.534-45.961-47.505-82.287-67.328-110.481-20.361-28.962-40.759-51.238-67.081-68.228-6.818-4.403-13.854-8.465-21.073-12.169-27.874-14.298-57.37-20.83-92.629-23.979-34.33-3.068-76.279-3.068-129.348-3.068h-3.004c-53.069 0-95.017 0-129.345 3.068-35.262 3.149-64.756 9.681-92.631 23.979-7.22 3.703-14.253 7.765-21.071 12.169-26.321 16.99-46.723 39.266-67.083 68.228-19.82 28.194-40.795 64.525-67.329 110.485l-1.504 2.603c-26.534 45.961-47.507 82.287-62.014 113.549-14.903 32.111-23.994 60.919-25.548 92.211-0.402 8.102-0.402 16.222 0 24.329 1.553 31.292 10.645 60.096 25.548 92.211 14.508 31.263 35.482 67.591 62.017 113.55l1.503 2.603c26.534 45.959 47.508 82.287 67.328 110.483 20.36 28.963 40.762 51.24 67.083 68.23 6.818 4.401 13.85 8.461 21.071 12.166 27.875 14.3 57.368 20.829 92.631 23.98 34.328 3.067 76.276 3.067 129.345 3.067h3.008c53.069 0 95.014 0 129.344-3.067zM673.267 511.799c25.271 61.371-36.1 122.742-97.472 97.472l-114.214-47.029c-28.932-11.913-51.907-34.891-63.82-63.819l-47.029-114.214c-25.27-61.372 36.101-122.743 97.473-97.472l114.214 47.027c28.932 11.913 51.904 34.889 63.821 63.821l47.027 114.214z" />
<glyph unicode="&#xe949;" glyph-name="Discovery-2" d="M600.171 550.091c8.764 3.61 17.532-5.157 13.922-13.925l-47.027-114.214c-5.419-13.15-15.859-23.595-29.009-29.009l-114.215-47.027c-8.767-3.61-17.535 5.154-13.925 13.922l47.031 114.214c5.414 13.15 15.855 23.595 29.009 29.009l114.214 47.029zM524.173 916.032c31.287-1.553 60.096-10.645 92.211-25.548 31.262-14.508 67.588-35.482 113.549-62.016l2.603-1.503c45.961-26.534 82.287-47.508 110.481-67.328 28.966-20.36 51.243-40.762 68.233-67.083 4.399-6.818 8.461-13.851 12.164-21.071 14.302-27.875 20.83-57.368 23.983-92.631 3.063-34.328 3.063-76.276 3.063-129.345v-3.008c0-53.069 0-95.014-3.063-129.344-3.153-35.26-9.681-64.755-23.983-92.629-3.703-7.223-7.765-14.255-12.164-21.073-16.99-26.321-39.266-46.72-68.233-67.081-28.194-19.823-64.521-40.794-110.481-67.328l-2.603-1.506c-45.961-26.534-82.287-47.509-113.549-62.016-32.115-14.903-60.924-23.991-92.211-25.549-8.107-0.401-16.226-0.401-24.333 0-31.287 1.557-60.096 10.645-92.209 25.549-31.263 14.507-67.591 35.482-113.551 62.016l-2.611 1.51c-45.955 26.53-82.281 47.505-110.474 67.324-28.963 20.361-51.24 40.759-68.23 67.081-4.401 6.818-8.461 13.85-12.166 21.073-14.299 27.874-20.829 57.37-23.98 92.629-3.067 34.33-3.067 76.275-3.067 129.344v3.008c0 53.069 0 95.017 3.067 129.345 3.151 35.262 9.681 64.756 23.98 92.631 3.704 7.22 7.764 14.253 12.166 21.071 16.99 26.321 39.268 46.723 68.23 67.083 28.195 19.82 64.524 40.794 110.483 67.328l2.603 1.503c45.959 26.535 82.287 47.509 113.55 62.016 32.113 14.903 60.922 23.994 92.209 25.548 8.107 0.402 16.226 0.402 24.333 0zM673.271 511.799c25.271 61.37-36.1 122.741-97.472 97.47l-114.214-47.029c-28.928-11.913-51.906-34.889-63.819-63.822l-47.029-114.214c-25.27-61.367 36.101-122.739 97.472-97.472l114.214 47.031c28.932 11.913 51.908 34.889 63.821 63.821l47.027 114.214z" />
<glyph unicode="&#xe94a;" glyph-name="Dislike" d="M398.715 269.423l95.169-154.65c11.26-18.295 31.202-29.44 52.681-29.44 37.914 0 66.906 33.792 61.137 71.262l-10.368 67.405c-11.217 72.913 45.197 138.667 118.963 138.667h29.431c108.245 0 178.65 113.916 130.24 210.732l-49.003 98.006c-36.139 72.274-110.007 117.928-190.814 117.928h-124.151c-57.51 0-108.376-28.445-139.296-72.034 0.416-4.377 0.629-8.813 0.629-13.299v-341.333c0-14.123-2.111-27.75-6.035-40.589 7.561-13.892 17.629-30.251 31.417-52.655zM309.333 704c0 41.237-33.429 74.667-74.667 74.667s-74.667-33.429-74.667-74.667v-341.333c0-41.237 33.429-74.667 74.667-74.667s74.667 33.429 74.667 74.667v341.333z" />
<glyph unicode="&#xe94b;" glyph-name="Display-1" d="M641.434 864c58.526 0 104.41 0 141.291-3.013 37.551-3.068 68.574-9.42 96.653-23.727 46.165-23.521 83.695-61.052 107.217-107.215 14.306-28.081 20.659-59.104 23.727-96.657 3.012-36.877 3.012-82.761 3.012-141.285v-2.871c0-58.522 0-104.414-3.012-141.291-3.068-37.551-9.421-68.574-23.727-96.653-23.522-46.165-61.052-83.695-107.217-107.217-28.079-14.306-59.102-20.659-96.653-23.727-36.877-3.012-82.765-3.012-141.286-3.012h-97.438v-78.251c26.641-1.86 53.158-6.054 79.245-12.574l67.183-16.798c17.143-4.288 27.571-21.662 23.283-38.805s-21.662-27.571-38.805-23.283l-67.183 16.798c-31.424 7.855-63.573 11.78-95.723 11.78s-64.299-3.925-95.721-11.78l-67.185-16.798c-17.145-4.288-34.519 6.14-38.806 23.283s6.138 34.517 23.284 38.805l67.185 16.798c26.085 6.519 52.602 10.714 79.243 12.574v78.251h-97.435c-58.522 0-104.411 0-141.288 3.012-37.553 3.068-68.576 9.421-96.657 23.727-46.162 23.522-83.694 61.052-107.214 107.217-14.308 28.079-20.659 59.102-23.727 96.653-3.013 36.881-3.013 82.765-3.013 141.291v2.867c0 58.525 0 104.41 3.013 141.289 3.068 37.553 9.419 68.576 23.727 96.657 23.521 46.162 61.052 83.694 107.214 107.215 28.081 14.307 59.104 20.659 96.657 23.727 36.879 3.013 82.764 3.013 141.291 3.013h258.865zM480 277.333c0-17.673 14.327-32 32-32h256c17.673 0 32 14.327 32 32s-14.327 32-32 32h-256c-17.673 0-32-14.327-32-32zM341.333 277.333c0-23.565-19.102-42.667-42.667-42.667s-42.667 19.102-42.667 42.667c0 23.565 19.103 42.667 42.667 42.667s42.667-19.102 42.667-42.667z" />
<glyph unicode="&#xe94c;" glyph-name="Display-2" d="M166.798 887.081c228.264 41.503 462.139 41.503 690.406 0 90.411-16.439 156.13-95.183 156.13-187.078v-355.624c0-122.569-108.147-216.973-229.594-200.41-79.569 10.85-159.625 16.913-239.74 18.189v-123.085c26.641-1.865 53.158-6.059 79.245-12.578l67.183-16.798c17.143-4.284 27.571-21.658 23.283-38.805-4.288-17.143-21.662-27.571-38.805-23.283l-67.183 16.798c-31.424 7.855-63.573 11.78-95.723 11.78s-64.299-3.925-95.721-11.78l-67.185-16.798c-17.145-4.288-34.519 6.14-38.806 23.283-4.286 17.148 6.138 34.522 23.284 38.805l67.185 16.798c26.085 6.519 52.602 10.714 79.243 12.578v123.085c-80.113-1.276-160.17-7.339-239.738-18.189-121.446-16.563-229.595 77.841-229.595 200.41v355.624c0 91.895 65.719 170.639 156.131 187.078z" />
<glyph unicode="&#xe94d;" glyph-name="Display-3" d="M596.015 864c52.211 0 93.244 0 126.481-2.566 33.92-2.619 62.153-8.041 88.333-20.171 43.23-20.033 79.693-52.221 104.934-92.634 15.283-24.471 24.162-51.815 30.972-85.146 6.669-32.663 11.755-73.375 18.231-125.182l0.354-2.843c8.128-65.014 14.485-115.856 16.085-156.799 1.621-41.583-1.446-76.207-14.276-107.942-20.988-51.908-59.093-95.074-107.998-122.338-29.901-16.666-63.872-24.009-105.34-27.554-40.823-3.49-92.062-3.49-157.585-3.49h-52.203v-78.251c26.641-1.86 53.158-6.054 79.245-12.574l67.183-16.798c17.148-4.288 27.571-21.662 23.283-38.805-4.284-17.143-21.658-27.571-38.805-23.283l-67.183 16.798c-31.424 7.855-63.573 11.78-95.723 11.78s-64.294-3.925-95.719-11.78l-67.185-16.798c-17.146-4.288-34.519 6.14-38.806 23.283s6.138 34.517 23.284 38.805l67.185 16.798c26.088 6.519 52.605 10.714 79.242 12.574v78.251h-52.203c-65.521 0-116.759 0-157.584 3.49-41.464 3.546-75.438 10.889-105.34 27.554-48.902 27.264-87.010 70.43-107.994 122.338-12.831 31.735-15.901 66.359-14.276 107.942 1.599 40.943 7.955 91.785 16.082 156.803l0.354 2.835c6.476 51.809 11.565 92.523 18.235 125.187 6.806 33.331 15.687 60.675 30.971 85.146 25.24 40.413 61.703 72.601 104.934 92.634 26.178 12.131 54.412 17.552 88.33 20.171 33.238 2.567 74.269 2.566 126.479 2.566h168.021z" />
<glyph unicode="&#xe94e;" glyph-name="Display-4" d="M641.434 864c58.526 0 104.41 0 141.291-3.013 37.551-3.068 68.574-9.42 96.653-23.727 46.165-23.521 83.695-61.052 107.217-107.215 14.306-28.081 20.659-59.104 23.727-96.657 3.012-36.877 3.012-82.761 3.012-141.285v-2.871c0-58.522 0-104.414-3.012-141.291-3.068-37.551-9.421-68.574-23.727-96.653-23.522-46.165-61.052-83.695-107.217-107.217-28.079-14.306-59.102-20.659-96.653-23.727-36.877-3.012-82.765-3.012-141.286-3.012h-97.438v-78.251c26.641-1.86 53.158-6.054 79.245-12.574l67.183-16.798c17.143-4.288 27.571-21.662 23.283-38.805s-21.662-27.571-38.805-23.283l-67.183 16.798c-31.424 7.855-63.573 11.78-95.723 11.78s-64.299-3.925-95.721-11.78l-67.185-16.798c-17.145-4.288-34.519 6.14-38.806 23.283s6.138 34.517 23.284 38.805l67.185 16.798c26.085 6.519 52.602 10.714 79.243 12.574v78.251h-97.435c-58.522 0-104.411 0-141.288 3.012-37.553 3.068-68.576 9.421-96.657 23.727-46.162 23.522-83.694 61.052-107.214 107.217-14.308 28.079-20.659 59.102-23.727 96.653-3.013 36.881-3.013 82.765-3.013 141.291v2.867c0 58.525 0 104.41 3.013 141.289 3.068 37.553 9.419 68.576 23.727 96.657 23.521 46.162 61.052 83.694 107.214 107.215 28.081 14.307 59.104 20.659 96.657 23.727 36.879 3.013 82.764 3.013 141.291 3.013h258.865z" />
</font>
</defs>
</svg>
